<?xml version="1.0" standalone="no"?>
<!DOCTYPE svg PUBLIC "-//W3C//DTD SVG 1.1//EN" "http://www.w3.org/Graphics/SVG/1.1/DTD/svg11.dtd" >
<!--
2013-9-30: Created.
-->
<svg>
<metadata>
Created by iconfont
</metadata>
<defs>

<font id="iconfont" horiz-adv-x="1024" >
  <font-face
    font-family="iconfont"
    font-weight="500"
    font-stretch="normal"
    units-per-em="1024"
    ascent="896"
    descent="-128"
  />
    <missing-glyph />
    
    <glyph glyph-name="x" unicode="x" horiz-adv-x="1001"
d="M281 543q-27 -1 -53 -1h-83q-18 0 -36.5 -6t-32.5 -18.5t-23 -32t-9 -45.5v-76h912v41q0 16 -0.5 30t-0.5 18q0 13 -5 29t-17 29.5t-31.5 22.5t-49.5 9h-133v-97h-438v97zM955 310v-52q0 -23 0.5 -52t0.5 -58t-10.5 -47.5t-26 -30t-33 -16t-31.5 -4.5q-14 -1 -29.5 -0.5
t-29.5 0.5h-32l-45 128h-439l-44 -128h-29h-34q-20 0 -45 1q-25 0 -41 9.5t-25.5 23t-13.5 29.5t-4 30v167h911zM163 247q-12 0 -21 -8.5t-9 -21.5t9 -21.5t21 -8.5q13 0 22 8.5t9 21.5t-9 21.5t-22 8.5zM316 123q-8 -26 -14 -48q-5 -19 -10.5 -37t-7.5 -25t-3 -15t1 -14.5
t9.5 -10.5t21.5 -4h37h67h81h80h64h36q23 0 34 12t2 38q-5 13 -9.5 30.5t-9.5 34.5q-5 19 -11 39h-368zM336 498v228q0 11 2.5 23t10 21.5t20.5 15.5t34 6h188q31 0 51.5 -14.5t20.5 -52.5v-227h-327z" />
    

    
    <glyph glyph-name="loading" unicode="&#58954;" d="M384 768c0 70.688 57.312 128 128 128s128-57.312 128-128c0-70.688-57.312-128-128-128s-128 57.312-128 128zM655.52 655.52c0 70.688 57.312 128 128 128s128-57.312 128-128c0-70.688-57.312-128-128-128s-128 57.312-128 128zM832 384c0 35.36 28.64 64 64 64s64-28.64 64-64c0-35.36-28.64-64-64-64s-64 28.64-64 64zM719.52 112.48c0 35.36 28.64 64 64 64s64-28.64 64-64c0-35.36-28.64-64-64-64s-64 28.64-64 64zM448 0c0 0 0 0 0 0 0 35.36 28.64 64 64 64s64-28.64 64-64c0 0 0 0 0 0 0-35.36-28.64-64-64-64s-64 28.64-64 64zM176.48 112.48c0 0 0 0 0 0 0 35.36 28.64 64 64 64s64-28.64 64-64c0 0 0 0 0 0 0-35.36-28.64-64-64-64s-64 28.64-64 64zM144.48 655.52c0 0 0 0 0 0 0 53.024 42.976 96 96 96s96-42.976 96-96c0 0 0 0 0 0 0-53.024-42.976-96-96-96s-96 42.976-96 96zM56 384c0 39.776 32.224 72 72 72s72-32.224 72-72c0-39.776-32.224-72-72-72s-72 32.224-72 72z"  horiz-adv-x="1024" />

    
    <glyph glyph-name="bread-arrow" unicode="&#58904;" d="M727.419 399.779v-31.56l-430.838-215.6v40.311l385.816 189.323v2.619l-385.816 190.194v40.31l430.838-215.599z"  horiz-adv-x="1024" />

    
    <glyph glyph-name="set" unicode="&#58908;" d="M1021.824 431.232l-0.576-0.064c-2.048 20.096-17.984 36.032-38.016 38.016h-23.424v0.32c-25.088 0-46.848 14.464-57.28 35.584-2.496 5.184-4.416 10.688-5.44 16.576-4.736 13.12-10.048 25.92-16.064 38.4 0 0.064 0 0.064-0.064 0.064-3.008 4.416-5.44 9.216-7.232 14.336 0 0.064 0 0.064 0 0.064-2.368 6.656-3.648 13.888-3.648 21.312 0 17.664 7.104 33.664 18.752 45.184h-0.064l12.992 12.992c0.192 0.128 0.32 0.256 0.512 0.448 0.128 0.192 0.32 0.32 0.448 0.512 15.168 15.616 15.936 39.936 2.432 56.512l0.256 0.192c-9.984 11.968-20.416 23.424-31.36 34.304-11.2 11.264-22.912 21.952-35.136 32.064l-0.128-0.128c-14.976 12.288-36.48 12.672-51.968 1.344l-9.344-9.344-8.832-8.704-0.384 0.384c-18.624-18.688-45.952-23.424-68.992-14.144-3.136 1.216-6.144 2.752-9.088 4.48-14.72 7.104-29.888 13.376-45.504 18.752-2.752 0.704-5.44 1.664-8.128 2.752 0 0-0.064 0-0.064 0.064-7.616 3.008-14.848 7.744-21.056 13.952-10.432 10.432-16.448 23.616-18.24 37.184-0.704 5.312-0.704 10.688 0 16v11.008c0 20.992-15.168 38.4-35.136 41.984-2.496 0.256-4.928 0.448-7.488 0.64h0.064c-14.080 1.088-28.288 1.728-42.624 1.728s-28.544-0.64-42.624-1.792v0c-2.496-0.192-4.992-0.384-7.488-0.64-19.968-3.52-35.136-20.992-35.136-41.92v-19.008c0-27.456-17.28-50.88-41.536-59.904-1.536-0.64-3.136-1.152-4.736-1.6-17.088-5.76-33.6-12.608-49.472-20.544-0.128 0-0.128-0.064-0.192-0.064-1.28-0.704-2.496-1.28-3.84-1.92-8.128-3.712-17.088-5.76-26.624-5.76-17.664 0-33.664 7.168-45.184 18.752l-0.064-0.128-13.504 13.44c-14.848 14.848-37.76 16.448-54.336 4.928-1.92-1.536-3.84-3.136-5.632-4.672-0.128-0.128-0.192-0.192-0.256-0.256-10.88-9.216-21.376-18.816-31.424-28.864-10.048-10.048-19.648-20.48-28.8-31.296 0 0-0.064 0-0.064-0.064-1.664-1.92-3.264-3.84-4.864-5.824-11.648-16.64-9.984-39.616 4.864-54.464l13.44-13.44c19.328-19.392 23.68-48.064 12.992-71.616-0.64-1.472-1.344-2.944-2.176-4.352-7.872-15.872-14.72-32.384-20.416-49.28-0.512-1.856-1.152-3.584-1.856-5.312 0 0 0 0 0-0.064-3.072-8.064-7.872-15.744-14.464-22.208-12.48-12.48-28.8-18.752-45.184-18.752v-0.192l-19.008 0c-20.992 0-38.4-15.104-41.984-35.072-0.256-2.432-0.512-4.928-0.704-7.488v0c-1.152-13.76-1.728-28.608-1.728-42.624v0c0-0.128 0-0.256 0-0.32 0-0.128 0-0.32 0-0.384v0c0-14.144 0.576-28.096 1.728-41.856v-0.064c0.192-2.496 0.448-4.992 0.704-7.488 3.584-19.968 20.928-35.136 41.856-35.136 0 0 0 0 0.064 0h19.072c27.2 0 50.432-17.024 59.648-41.024 0-0.064 0-0.064 0-0.064 0.64-1.6 1.152-3.2 1.536-4.8 0.064-0.064 0.064-0.192 0.192-0.32 5.696-17.024 12.608-33.536 20.48-49.472 0.064-0.064 0.128-0.192 0.192-0.256 0.704-1.216 1.28-2.496 1.92-3.84 3.712-8.128 5.824-17.152 5.824-26.624 0-17.664-7.168-33.664-18.752-45.184l0.064-0.064-12.992-12.992c-0.192-0.128-0.32-0.32-0.512-0.448-0.192-0.192-0.32-0.32-0.448-0.512-14.208-14.656-15.808-36.992-4.8-53.376 1.856-2.24 3.712-4.48 5.568-6.656 9.088-10.752 18.624-21.056 28.608-31.040v0c9.984-9.984 20.352-19.584 31.104-28.672 2.176-1.856 4.352-3.648 6.528-5.44 14.784-9.984 34.432-9.6 48.896 0.96l18.112 18.112 0.384-0.32c19.392 19.328 48.128 23.68 71.744 12.928 1.216-0.512 2.432-1.152 3.584-1.728 0.064-0.064 0.192-0.064 0.32-0.192 16.064-8 32.704-14.912 49.92-20.736 1.472-0.448 2.944-0.96 4.352-1.472 8.384-3.136 16.256-8 23.040-14.72 12.48-12.48 18.752-28.8 18.752-45.184h0.192l0-18.816c0-22.016 16.704-40.192 38.208-42.368v-0.256c15.424-1.472 31.040-2.176 46.912-2.176 15.872 0 31.488 0.704 46.976 2.176l-0.064 0.256c21.44 2.176 38.272 20.352 38.272 42.368v19.008c0 25.664 15.104 47.744 36.864 57.92 4.416 2.112 9.088 3.648 13.952 4.672 14.016 4.928 27.648 10.56 40.896 17.024 3.84 2.496 8 4.608 12.288 6.144 6.912 2.624 14.464 4.096 22.4 4.096 16.192 0 31.040-6.080 42.368-16.128 1.92-1.664 3.776-3.456 5.504-5.44l10.88-10.944 0.064 0.064c14.976-14.976 38.464-16.448 55.104-4.416 0.064 0 0.128 0.064 0.192 0.192 1.408 1.152 2.752 2.24 4.096 3.392 11.2 9.472 21.952 19.328 32.256 29.632 10.304 10.304 20.224 21.056 29.632 32.256 1.216 1.472 2.432 2.944 3.648 4.416 11.712 16.064 10.688 38.4-2.88 53.44l-0.064 0.064-3.072 3.008-11.904 11.904v0.064c-19.072 19.072-23.552 47.168-13.504 70.464 0.96 2.176 1.984 4.352 3.2 6.4 7.552 15.36 14.144 31.296 19.776 47.68 0.64 2.176 1.28 4.352 2.176 6.4 3.072 8 7.872 15.424 14.336 21.888 12.416 12.416 28.8 18.688 45.184 18.688v0.064h18.368l-0 0.256c22.784 0 41.408 17.92 42.496 40.384l0.64-0.064c1.28 14.784 1.92 29.696 1.92 44.672 0 15.936-0.768 31.68-2.176 47.232zM773.696 384v0c0-29.824-4.928-58.496-14.144-85.184-3.456-10.176-7.616-20.096-12.224-29.632-12.736-26.176-29.824-49.92-50.112-70.4-20.352-20.416-44.032-37.504-70.144-50.368-9.664-4.8-19.648-8.96-29.888-12.48-26.688-9.344-55.36-14.336-85.184-14.464-0.256 0-0.512 0-0.768 0-29.568 0-57.92 4.864-84.416 13.888-10.688 3.584-20.992 7.872-30.912 12.736-26.048 12.736-49.6 29.632-69.888 49.92-20.48 20.352-37.568 43.968-50.368 70.144-4.928 9.856-9.216 20.096-12.8 30.592-9.088 26.56-14.080 54.976-14.144 84.608 0.064 29.568 4.992 59.328 14.144 85.824 3.584 10.56 7.872 20.8 12.736 30.656 12.864 26.112 29.888 49.792 50.368 70.144 20.48 20.352 44.224 37.376 70.4 50.176 9.792 4.736 19.968 8.96 30.4 12.48 26.496 9.024 54.848 13.888 84.416 13.888 0.256 0 0.512 0 0.768 0 29.888-0.128 58.56-5.184 85.248-14.4 10.24-3.52 20.224-7.744 29.824-12.48 26.176-12.864 49.856-30.016 70.208-50.368 20.224-20.352 37.12-43.968 49.92-69.888 4.736-9.728 8.96-19.776 12.48-30.144 9.152-26.624 14.144-55.232 14.144-84.928l0-0.32z"  horiz-adv-x="1024" />

    
    <glyph glyph-name="mute-audio" unicode="&#58926;" d="M258.939 640v-512h-170.756c-47.079 0-85.244 38.483-85.244 84.546v342.907c0 46.694 37.774 84.546 85.244 84.546h170.756zM937.317 474.51l-120.733 120.732c-24.83 24.83-65.463 24.941-90.457-0.053-25.168-25.168-25.017-65.492-0.053-90.457l120.732-120.732-120.732-120.732c-24.83-24.83-24.941-65.463 0.053-90.457 25.168-25.168 65.492-25.017 90.457-0.053l120.733 120.732 120.732-120.732c24.83-24.83 65.463-24.941 90.457 0.053 25.168 25.168 25.017 65.492 0.053 90.457l-120.733 120.732 120.733 120.732c24.83 24.83 24.941 65.463-0.053 90.457-25.168 25.168-65.492 25.017-90.457 0.053l-120.732-120.732zM532.018 844.81c37.695 28.272 68.254 12.299 68.254-34.354v-852.911c0-47.245-30.291-62.826-68.254-34.354l-273.079 204.81v512l273.079 204.81z"  horiz-adv-x="1195" />

    
    <glyph glyph-name="ditudizhi" unicode="&#58955;" d="M627.7 529c0 64.8-51.9 117.4-115.7 117.4S396.3 593.8 396.3 529 448.2 411.6 512 411.6 627.7 464.3 627.7 529zM586.7 529c0-41.9-33.5-76-74.6-76s-74.6 34.1-74.6 76 33.5 76 74.6 76c19.8 0 38.4-7.8 52.5-21.9C578.8 568.7 586.7 549.5 586.7 529zM486.9 86.8c5.9-8.6 15.3-13.7 25.2-13.7 10 0 19.4 5.1 25.2 13.7l11.8 17.3c66.8 98.2 205.8 302.5 205.7 424.9 0 135.9-108.8 246.4-242.6 246.4-133.8 0-242.7-110.6-242.7-246.4 0-122.2 138.5-326 205.1-424L486.9 86.8zM310.3 529c0 112.9 90.5 204.8 201.7 204.8S713.7 642 713.7 529c0-109.5-138.9-313.7-198.2-400.9L512 123l-3.4 5C449.3 215.2 310.3 419.5 310.3 529zM624.1 146.8c0 0-11.9 2.1-11.9-11.4 0-11.8 9.4-13.6 9.4-13.6 41.6-13.4 60.2-31.7 60.2-44 0-19-67.8-47.7-169.9-47.7s-169.9 28.7-169.9 47.7c0 12.3 18.6 30.6 60.2 44 0 0 9.4 1.3 9.4 13.7 0 15.2-11.9 11.3-11.9 11.3-76.1-17.2-114.7-40.4-114.7-69 0-47.8 99.6-85.2 226.8-85.2 127.2 0 226.8 37.4 226.8 85.2C738.8 106.5 700.2 129.7 624.1 146.8z"  horiz-adv-x="1024" />

    
    <glyph glyph-name="book" unicode="&#58906;" d="M893.615 775.155c-19.081 0-31.801-12.72-31.801-31.801v-737.789c0-31.801-31.801-63.602-63.602-63.602l-559.702-0c-38.161 0-82.683 31.801-82.683 63.602v69.963c0 31.801 38.161 50.882 76.323 50.882h534.261c19.081 0 31.801 12.72 31.801 31.801v623.304c0 69.963-50.882 114.484-127.205 114.484h-432.497c-69.963 0-139.925-38.161-139.925-114.484v-782.311c0 0 0 0 0-6.36s0-6.36 0-12.72c6.36-57.242 63.602-101.764 120.845-108.124 0 0 6.36 0 6.36 0 0 0 0 0 6.36 0h566.062c69.963 0 127.205 57.242 127.205 120.845l0 750.509c0 12.72-12.72 31.801-31.801 31.801zM772.77 62.807h-521.54c-19.081 0-31.801-12.72-31.801-31.801s12.72-31.801 31.801-31.801h521.54c19.081 0 31.801 12.72 31.801 31.801s-12.72 31.801-31.801 31.801z"  horiz-adv-x="1024" />

    
    <glyph glyph-name="start-fullscreen" unicode="&#58952;" d="M598.484 472.594c16.875-16.875 46.406-16.875 63.281 0l162.423 160.313v-128.672c0-18.985 14.766-33.75 31.641-33.75h23.203c18.983 0 35.859 12.656 35.859 29.531v234.141c0 0 0 0 0 0v16.875c0 8.438-2.109 16.875-8.438 23.203s-14.766 10.547-25.314 10.547h-16.875c0 0 0 0 0 0h-234.141c-18.985 0-33.75-14.766-33.75-33.75v-23.203c2.109-21.094 18.985-33.75 37.969-33.75h124.453l-160.313-158.203c-16.875-18.983-16.875-46.406 0-63.281v0 0zM427.625 295.406c-16.875 16.875-46.406 16.875-63.281 0l-162.423-158.203v126.563c0 18.983-14.766 35.859-31.641 35.859h-23.203c-18.983 0-35.859-14.766-35.859-31.641v-234.141c0 0 0 0 0 0v-16.875c0-8.438 2.109-16.875 8.438-23.203 4.219-6.327 12.656-10.547 23.203-10.547h16.875c0 0 0 0 0 0h234.141c18.983 0 33.75 14.766 33.75 33.75v23.203c0 21.094-18.985 31.641-37.969 31.641h-124.453l162.423 160.313c16.875 18.985 16.875 46.406 0 63.281v0 0zM427.625 295.406z"  horiz-adv-x="1024" />

    
    <glyph glyph-name="big-dot" unicode="&#58907;" d="M114.82 377.81c0.135 225.488 183.412 408.625 408.953 408.645 224.881 0.005 408.953-183.101 409.040-406.921 0.091-228.742-182.442-411.139-411.395-411.089-223.643 0.048-406.737 184.387-406.599 409.357z"  horiz-adv-x="1024" />

    
    <glyph glyph-name="tree-close" unicode="&#58905;" d="M176.024 879.555l671.951-503.775-671.951-503.779v1007.555z"  horiz-adv-x="1024" />

    
    <glyph glyph-name="right01" unicode="&#58880;" d="M1023.85776 797.039127c0 39.190581-31.463596 70.961168-70.275553 70.961168-22.777773 0-43.012629-10.9504-55.854099-27.912723l-0.034792 0.028653-0.444115-0.64673c-0.890276-1.202385-1.728364-2.444679-2.542916-3.704368L395.922285 109.147118l-283.857976 268.229021-0.367367-0.530073c-11.706623 9.634428-26.354228 15.376199-42.262546 15.376199-38.335097 0-69.412906-33.265638-69.412906-74.300216 0-24.876574 11.432377-46.880727 28.967752-60.365856l-0.094144-0.1361L376.305505-70.352045c13.034874-11.156084 30.271444-15.60542 47.066969-12.472056 16.609283 3.25923 31.024597 13.725606 38.98285 28.704762l545.558303 805.873074-0.1361 0.109494C1017.821277 764.13574 1023.85776 779.875213 1023.85776 797.039127z"  horiz-adv-x="1024" />

    
    <glyph glyph-name="btn-arrow-down" unicode="&#58881;" d="M1022.285 592.62l-505.65-510.277-514.919 510.277h1020.57z"  horiz-adv-x="1024" />

    
    <glyph glyph-name="screen-icon" unicode="&#58882;" d="M1020.986 665.521l-505.846-680.635-515.119 680.635h1020.965z"  horiz-adv-x="1024" />

    
    <glyph glyph-name="edited" unicode="&#58883;" d="M511.465 896c-282.437 0-511.443-229.008-511.443-511.444 0-282.435 229.006-511.437 511.443-511.437 282.435 0 511.438 229.002 511.438 511.437-0.001 282.436-229.004 511.444-511.438 511.444zM511.465-30.971c-229.067 0-415.534 186.404-415.534 415.533 0 229.123 186.465 415.526 415.534 415.526 229.060 0 415.527-186.402 415.527-415.526-0-229.128-186.468-415.533-415.527-415.533zM715.96 628.037c-15.821 15.802-41.442 15.802-57.263 0l-47.754-47.731 95.465-95.461 47.733 47.711c15.821 15.82 15.821 41.481 0 57.302l-38.182 38.18zM333.607 302.981l95.466-95.461 259.526 257.487-95.464 95.462zM256.914 129.231l152.749 60.458-94.664 94.683z"  horiz-adv-x="1024" />

    
    <glyph glyph-name="back-to-back" unicode="&#58884;" d="M69.144 14.758c2.397 2.393 4.923 4.565 7.523 6.611l363.461 363.256-368.476 368.471 0.494 0.494c-32.197 32.696-32.062 85.265 0.441 117.767 32.659 32.667 85.607 32.667 118.268 0 2.401-2.402 4.572-4.938 6.619-7.547l420.079-420.075-0.862-0.865c0.276-0.26 0.579-0.481 0.852-0.751 32.672-31.772 32.672-83.273 0-115.036-0.279-0.279-0.586-0.501-0.867-0.769l0.86-0.854-429.215-428.977-0.491 0.491c-0.143-0.154-0.268-0.318-0.422-0.473-32.658-32.667-85.609-32.667-118.261 0-32.676 32.659-32.676 85.608-0.002 118.258zM869.134 893.68c48.52 0 87.861-39.334 87.861-87.861v-843.464c0-48.52-39.34-87.861-87.861-87.861-48.528 0-87.861 39.34-87.861 87.861l-0 843.464c0 48.528 39.333 87.861 87.861 87.861z"  horiz-adv-x="1024" />

    
    <glyph glyph-name="back-home" unicode="&#58885;" d="M955.066 14.758c-2.397 2.393-4.923 4.565-7.523 6.611l-363.461 363.256 368.476 368.471-0.494 0.494c32.196 32.696 32.062 85.265-0.442 117.767-32.659 32.667-85.607 32.667-118.268 0-2.401-2.402-4.572-4.938-6.619-7.547l-420.079-420.075 0.862-0.865c-0.276-0.26-0.579-0.481-0.852-0.751-32.672-31.772-32.672-83.273 0-115.036 0.279-0.279 0.586-0.501 0.867-0.769l-0.86-0.854 429.216-428.977 0.491 0.491c0.143-0.154 0.268-0.318 0.422-0.473 32.658-32.667 85.609-32.667 118.261 0 32.676 32.659 32.676 85.608 0.002 118.258zM155.076 893.68c-48.52 0-87.861-39.334-87.861-87.861v-843.464c0-48.52 39.34-87.861 87.861-87.861 48.528 0 87.861 39.34 87.861 87.861v843.464c0 48.528-39.334 87.861-87.861 87.861z"  horiz-adv-x="1024" />

    
    <glyph glyph-name="role-user" unicode="&#58886;" d="M511.399 384.697c141.248 0 255.651 114.404 255.651 255.651 0 141.248-114.402 255.652-255.651 255.652s-255.651-114.404-255.651-255.652c0-141.246 114.403-255.651 255.651-255.651v0zM511.399 256.871c-170.647 0-511.303-85.642-511.303-255.651v-127.826h1022.605v127.827c0 170.009-340.656 255.65-511.303 255.65v0z"  horiz-adv-x="1024" />

    
    <glyph glyph-name="starting" unicode="&#58887;" d="M782.812 570.875c-9.522 9.459-21.689 14.162-34.112 14.61-13.835 0.579-27.803-4.054-38.358-14.671l-261.027-261.034-127.096 127.096c-10.552 10.554-24.518 15.187-38.295 14.675-12.424-0.517-24.714-5.149-34.242-14.675-9.459-9.458-14.090-21.819-14.608-34.241-0.517-13.775 4.116-27.742 14.608-38.296l163.332-163.329c10.037-9.975 23.168-14.995 36.234-14.995 13.131 0 26.258 5.019 36.236 14.995l297.326 297.332c10.559 10.553 15.194 24.519 14.676 38.293-0.515 12.422-5.148 24.782-14.675 34.241zM513.624 895.032c-282.478 0-511.519-229.042-511.519-511.52 0-282.475 229.039-511.512 511.519-511.512 282.475 0 511.513 229.035 511.513 511.512-0.001 282.478-229.037 511.52-511.513 511.52zM513.624-32.075c-229.162 0-415.594 186.494-415.594 415.588 0 229.101 186.432 415.594 415.594 415.594 229.157 0 415.587-186.492 415.587-415.594 0-229.094-186.43-415.588-415.587-415.588z"  horiz-adv-x="1026" />

    
    <glyph glyph-name="deleted" unicode="&#58888;" d="M511.181 896c-282.28 0-511.16-228.881-511.16-511.161 0-282.278 228.879-511.154 511.16-511.154 282.278 0 511.155 228.875 511.155 511.154-0.002 282.279-228.878 511.161-511.155 511.161zM511.18-30.456c-228.94 0-415.304 186.301-415.304 415.303 0 228.996 186.361 415.296 415.304 415.296 228.932 0 415.297-186.299 415.297-415.296-0-229.002-186.364-415.303-415.297-415.303zM712.069 589.408c-20.38 20.382-51.932 18.863-72.286-1.492l-131.879-131.879-128.441 128.441c-20.373 20.373-54.039 19.742-74.42-0.64-20.391-20.391-21.022-54.057-0.65-74.43l128.44-128.44-125.082-125.084c-20.373-20.373-21.874-51.906-1.493-72.287 20.391-20.391 51.925-18.889 72.297 1.483l125.083 125.084 132.785-132.785c20.355-20.355 54.039-19.742 74.429 0.65 20.382 20.38 20.995 54.064 0.641 74.419l-132.785 132.786 131.878 131.878c20.356 20.355 21.875 51.906 1.484 72.297z"  horiz-adv-x="1024" />

    
    <glyph glyph-name="on-the-icon" unicode="&#58889;" d="M503.92-127.119l345.062 395.211h-690.123zM509.953 895.945l-351.094-402.121h702.189z"  horiz-adv-x="1024" />

    
    <glyph glyph-name="page-pre" unicode="&#58890;" d="M759.471 37.836c-2.247 2.243-4.615 4.28-7.053 6.198l-340.745 340.552 345.446 345.442-0.463 0.463c30.185 30.652 30.058 79.936-0.413 110.407-30.618 30.625-80.257 30.625-110.876 0-2.251-2.252-4.286-4.629-6.205-7.075l-393.824-393.82 0.808-0.811c-0.259-0.244-0.543-0.451-0.799-0.704-30.63-29.786-30.63-78.068 0-107.846 0.262-0.262 0.549-0.47 0.813-0.721l-0.806-0.801 402.39-402.166 0.46 0.46c0.134-0.144 0.251-0.298 0.396-0.443 30.617-30.625 80.258-30.625 110.87 0 30.633 30.618 30.633 80.257 0.001 110.867z"  horiz-adv-x="1024" />

    
    <glyph glyph-name="page" unicode="&#58891;" d="M592.121-46.656v256.034h-160.954v-256.718c-5.031-0.259-9.043-0.649-13.056-0.649-75.997 0-152.034-0.041-228.035 0-26.115 0-43.676 16.75-43.792 44.491-0.527 105.342-0.366 210.769 0.117 316.112 0 5.555 4.221 12.659 8.478 16.451 68.778 60.768 137.919 121.147 206.943 181.574 45.945 40.223 91.852 80.448 137.798 120.629 3.569 3.102 7.222 6.113 11.72 9.953 27.414-23.948 54.706-47.763 81.959-71.622 89.904-78.686 179.691-157.544 269.839-235.928 9.693-8.396 13.829-16.922 13.746-30.488-0.567-100.006-0.406-200.046-0.201-300.006 0.038-18.176-4.219-33.982-19.348-44.018-5.475-3.654-12.409-6.803-18.694-6.845-80.66-0.431-161.319-0.211-241.934-0.17-1.177-0.003-2.4 0.557-4.586 1.199v0M713.253 662.187c0 42.25-0.040 16.181 0 55.159 0.039 24.892 5.635 30.835 29.035 30.877 36.337 0 72.671 0.040 109.008-0.043 18.737-0.048 25.22-7.062 25.264-28.123 0.084-83.42 0.282-101.801-0.244-185.22-0.083-12.877 3.326-21.144 12.851-29.327 39.828-34.025 78.878-68.994 118.134-103.75 19.259-17.056 19.748-25.364 3.526-45.653-9.81-12.317-19.42-24.85-29.318-37.125-12.164-15.199-22.223-16.148-36.781-3.225-139.378 123.518-278.76 247.12-418.184 370.678-4.825 4.263-9.771 8.444-15.412 13.355-31.345-27.741-62.45-55.175-93.473-82.691-113.141-100.265-226.284-200.566-339.428-300.824-15.328-13.608-24.855-12.794-37.751 3.23-10.671 13.308-21.291 26.703-31.794 40.134-12.248 15.677-11.759 25.801 3.041 39.020 63.139 56.118 126.446 112.022 189.706 168.008 84.307 74.637 168.698 149.185 252.967 223.949 38.239 33.896 75.468 33.896 113.792-0.258 45.296-40.352 90.719-80.538 136.093-120.76 2.155-1.898 4.425-3.66 8.967-7.411v0M713.253 662.187z"  horiz-adv-x="1024" />

    
    <glyph glyph-name="search-magnifier" unicode="&#58892;" d="M981.281-14.204l-158.421 188.974c-10.747 12.819-29.847 14.498-42.664 3.753l-0.056-0.046-47.929 57.171c61.611 70.057 98.993 161.939 98.993 262.564 0 219.69-178.093 397.78-397.782 397.78-219.689 0-397.781-178.093-397.781-397.78s178.094-397.782 397.781-397.782c83.177 0 160.38 25.545 224.222 69.195l46.199-55.11-0.055-0.048c-12.819-10.746-14.498-29.847-3.753-42.664l158.423-188.973c10.746-12.818 29.846-14.497 42.664-3.753l76.407 64.054c12.816 10.747 14.497 29.849 3.752 42.665v0zM155.39 498.214c0 153.553 124.48 278.033 278.033 278.033 153.554 0 278.034-124.48 278.034-278.033 0-153.554-124.48-278.034-278.034-278.034-153.551-0.001-278.033 124.479-278.033 278.034v0z"  horiz-adv-x="1024" />

    
    <glyph glyph-name="stoping" unicode="&#58893;" d="M511.75 895.727c-282.594 0-511.729-229.136-511.729-511.731 0-282.592 229.134-511.723 511.729-511.723 282.592 0 511.724 229.13 511.724 511.723-0.001 282.594-229.132 511.731-511.724 511.731zM511.75-31.762c-229.195 0-415.766 186.509-415.766 415.765 0 229.251 186.569 415.758 415.766 415.758 229.188 0 415.759-186.507 415.759-415.758 0-229.256-186.571-415.765-415.759-415.765zM717.436 448.118h-411.376c-35.412 0-64.118-28.707-64.118-64.118s28.707-64.117 64.118-64.117h411.376c35.412 0 64.118 28.707 64.118 64.117s-28.707 64.118-64.118 64.118z"  horiz-adv-x="1024" />

    
    <glyph glyph-name="exit" unicode="&#58894;" d="M1013.82 410.949l-170.406 212.899c-8.251 10.294-20.516 15.989-33.221 15.989-4.672 0-9.564-0.731-14.090-2.41-17.084-5.987-28.547-22.122-28.547-40.229v-127.769l-340.669 0c-47.093 0-85.276-38.037-85.276-85.13 0-47.092 38.184-85.204 85.276-85.204h340.668v-127.768c0-18.106 11.389-34.242 28.547-40.229 4.6-1.679 9.417-2.41 14.090-2.41 12.704 0 24.97 5.695 33.221 15.989l170.406 212.899c12.413 15.771 12.413 37.82 0.001 53.373v0M597.148 43.631h-340.74c-0.146 0-0.438 0-0.657 0-46.726 0-84.473 38.039-84.473 85.132v511.074c0 0.293 0 0.438 0 0.731 0 46.653 38.039 84.399 85.13 84.399h340.74c47.093 0 85.277 38.186 85.277 85.276 0 47.093-38.257 85.13-85.277 85.13l-425.871-0c-94.111 0-170.407-76.296-170.407-170.406v-681.336c0-94.11 76.296-170.406 170.407-170.406h425.871c47.092 0 85.276 38.038 85.276 85.13 0.001 47.093-38.256 85.276-85.276 85.276v0M597.148 43.631z"  horiz-adv-x="1024" />

    
    <glyph glyph-name="page-next" unicode="&#58895;" d="M254.938 37.836c2.247 2.243 4.615 4.28 7.053 6.198l340.745 340.552-345.446 345.442 0.463 0.463c-30.185 30.652-30.058 79.936 0.413 110.407 30.618 30.625 80.257 30.625 110.876 0 2.251-2.252 4.286-4.629 6.205-7.075l393.824-393.82-0.808-0.811c0.259-0.244 0.543-0.451 0.799-0.704 30.63-29.786 30.63-78.068 0-107.846-0.262-0.262-0.549-0.47-0.813-0.721l0.806-0.801-402.389-402.166-0.46 0.46c-0.134-0.144-0.251-0.298-0.396-0.443-30.617-30.625-80.258-30.625-110.87 0-30.634 30.618-30.634 80.257-0.002 110.867z"  horiz-adv-x="1024" />

    
    <glyph glyph-name="hide-category" unicode="&#58896;" d="M85.191 725.662h851.691c47.030 0 85.169 38.13 85.169 85.169 0 47.039-38.139 85.169-85.169 85.169l-851.691-0c-47.039 0-85.169-38.13-85.169-85.169 0-47.039 38.13-85.169 85.169-85.169zM936.882 470.155h-851.691c-47.039 0-85.169-38.13-85.169-85.169s38.13-85.169 85.169-85.169h851.691c47.030 0 85.169 38.13 85.169 85.169s-38.139 85.169-85.169 85.169zM936.882 44.309h-851.691c-47.039 0-85.169-38.13-85.169-85.169 0-47.039 38.13-85.169 85.169-85.169h851.691c47.030 0 85.169 38.13 85.169 85.169-0 47.039-38.139 85.169-85.169 85.169z"  horiz-adv-x="1024" />

    
    <glyph glyph-name="checkbox01" unicode="&#58897;" d="M901.655558 895.48016 120.752178 895.48016C54.229089 895.48016 0.300852 841.552947 0.300852 775.029858L0.300852-5.873522c0-66.523089 53.927213-120.450303 120.450303-120.450303l780.90338 0c66.523089 0 120.450303 53.927213 120.450303 120.450303L1022.104837 775.029858C1022.10586 841.552947 968.178647 895.48016 901.655558 895.48016zM874.254487 644.393565 476.299917 56.553273c-5.805216-10.926864-16.320711-18.560728-28.436656-20.938891-12.251022-2.286066-24.824385 0.959861-34.332946 9.098215L160.113651 283.803997l0.068562 0.099261c-12.791327 9.837042-21.13025 25.8876-21.13025 44.033889 0 29.93273 22.669302 54.197366 50.633191 54.197366 11.604292 0 22.288632-4.188392 30.828123-11.216459l0.268106 0.38681 207.058846-195.658192 363.835496 530.028609c0.593518 0.918929 1.205455 1.824555 1.854231 2.701528l0.323365 0.471744 0.025583-0.020466c9.367345 12.372795 24.127514 20.360723 40.742936 20.360723 28.310789 0 51.262524-23.174815 51.262524-51.761897 0-12.520151-4.403287-24.001647-11.730159-32.95353L874.254487 644.393565z"  horiz-adv-x="1024" />

    
    <glyph glyph-name="edit" unicode="&#58898;" d="M885.899 574.924l-183.141 183.132 91.609 91.567c30.352 30.314 79.502 30.314 109.854 0l73.249-73.244c30.352-30.352 30.352-79.577 0-109.928l-91.572-91.528zM353.856 42.906l-183.141 183.132 497.876 493.965 183.14-183.136-497.875-493.961zM23.588-107.284l111.429 297.625 181.604-181.641-293.033-115.984z"  horiz-adv-x="1024" />

    
    <glyph glyph-name="start" unicode="&#58899;" d="M249.333-118.062c-39.601-28.237-89.103 7.056-89.103 63.554v877.010c0 56.482 49.5 91.792 89.103 63.555l614.822-438.493c42.758-30.497 42.758-96.623 0-127.117l-614.822-438.51z"  horiz-adv-x="1024" />

    
    <glyph glyph-name="delete" unicode="&#58900;" d="M651.956 387.9l256.408 256.409c39.576 39.576 42.53 100.92 2.884 140.567-39.625 39.628-100.971 36.674-140.546-2.902l-256.41-256.41-249.727 249.727c-39.611 39.611-105.068 38.383-144.696-1.244-39.646-39.646-40.873-105.103-1.263-144.713l249.727-249.727-243.198-243.199c-39.611-39.611-42.53-100.92-2.902-140.548 39.646-39.646 100.957-36.727 140.567 2.884l243.198 243.198 258.173-258.173c39.576-39.576 105.067-38.383 144.713 1.264 39.629 39.626 40.822 105.118 1.246 144.693l-258.175 258.174z"  horiz-adv-x="1024" />

    
    <glyph glyph-name="stop" unicode="&#58901;" d="M853.798-98.496h-138.446c-38.224 0-69.218 30.996-69.218 69.218v830.657c0 38.226 30.995 69.218 69.218 69.218h138.446c38.224 0 69.218-30.994 69.218-69.218v-830.657c-0-38.223-30.995-69.218-69.218-69.218v0zM310.259-98.496h-138.436c-38.234 0-69.229 30.996-69.229 69.218l0 830.657c0 38.226 30.995 69.218 69.229 69.218h138.437c38.222 0 69.217-30.994 69.217-69.218v-830.657c-0.001-38.223-30.996-69.218-69.218-69.218v0z"  horiz-adv-x="1024" />

    
    <glyph glyph-name="morenpaixu01" unicode="&#58902;" d="M515.598968-122.782162 935.053202 301.277974 86.899162 301.277974ZM515.598968 894.976694 86.899162 470.916559 935.053202 470.916559Z"  horiz-adv-x="1024" />

    
    <glyph glyph-name="checkboxweixuanshi" unicode="&#58903;" d="M902.452713 894.901992 121.549334 894.901992c-66.523089 0-120.451326-53.927213-120.451326-120.450303l0-780.90338c0-66.523089 53.927213-120.450303 120.450303-120.450303l780.90338 0c66.523089 0 120.450303 53.927213 120.450303 120.450303L1022.901992 774.45169C1022.903016 840.974779 968.975802 894.901992 902.452713 894.901992zM949.915701 19.069567c0-40.310078-32.676214-72.986291-72.986291-72.986291L147.069567-53.916724c-40.310078 0-72.986291 32.676214-72.986291 72.986291L74.083276 748.930433c0 40.310078 32.676214 72.986291 72.986291 72.986291l729.859843 0c40.310078 0 72.986291-32.676214 72.986291-72.986291L949.915701 19.069567z"  horiz-adv-x="1024" />

    
    <glyph glyph-name="fill" unicode="&#58913;" d="M648.71 440.65l263.76 263.767-80.087 80.087-263.74-263.753v372.975h-113.286v-372.975l-263.741 263.753-80.087-80.087 263.761-263.767h-373.009v-113.273h372.995l-263.747-263.753 80.087-80.088 263.741 263.741v-373.003h113.286v373.003l263.74-263.741 80.087 80.088-263.747 263.753h372.996v113.273z"  horiz-adv-x="1024" />

    
    <glyph glyph-name="class-tree" unicode="&#58914;" d="M979.259 192.142h-75.941v195.763c0 25.32-20.252 45.571-45.571 45.571h-315.591v150.199h75.946c25.315 0 45.566 20.25 45.566 45.57v210.957c0 25.315-20.25 45.566-45.566 45.566h-210.958c-25.314 0-45.564-20.25-45.564-45.566v-210.958c0-25.319 20.25-45.57 45.564-45.57h75.942v-150.199h-317.276c-25.319 0-45.57-20.25-45.57-45.571v-195.764l-74.255-0c-25.315 0-45.566-20.256-45.566-45.571l-0-210.956c0-25.314 20.25-45.564 45.566-45.564h210.958c25.319 0 45.57 20.25 45.57 45.564l-0 212.648c0 25.314-20.25 45.564-45.57 45.564h-75.942l0 178.891h300.403v-180.576h-74.258c-25.314 0-45.564-20.256-45.564-45.571l0-210.957c0-25.314 20.25-45.564 45.564-45.564h210.958c25.315 0 45.566 20.25 45.566 45.564l-0 212.648c0 25.314-20.25 45.564-45.566 45.564h-75.946l0 178.891h300.403v-180.576h-75.942c-25.314 0-45.569-20.256-45.569-45.571v-210.957c0-25.314 20.255-45.564 45.569-45.564h210.958c25.314 0 45.566 20.25 45.566 45.564v212.648c-0.002 23.624-20.253 43.88-43.883 43.88v0 0zM434.149 813.199h156.951v-156.951l-156.951-0v156.951zM229.938 121.258v-158.64h-156.951v158.64h156.951zM587.726-32.319h-150.203v150.204h150.203v-150.204zM947.194-32.319h-148.51v148.513h148.51l0-148.513zM947.194-32.319z"  horiz-adv-x="1024" />

    
    <glyph glyph-name="date" unicode="&#58915;" d="M926.971-126.663h-829.943c-52.828 0-95.726 42.89-95.726 95.724l0 734.159c0 52.896 42.898 95.786 95.726 95.786h127.666v-63.837h-159.554v-797.995h893.721l0 797.932h-159.625v63.9h127.675c52.896 0 95.788-42.89 95.788-95.786v-734.097c-0.001-52.897-42.893-95.787-95.727-95.787v0M671.622 511.71h127.675v-95.726h-127.675v95.726M799.297 96.736h-127.675v95.724h127.675v-95.724M671.622 352.085h127.675v-95.724h-127.675v95.724M719.487 639.383c-26.418 0-47.864 21.444-47.864 47.862v159.622c0 26.418 21.385 47.864 47.864 47.864 26.48 0 47.864-21.446 47.864-47.864v-159.622c-0.002-26.417-21.447-47.862-47.864-47.862v0M448.163 511.71h127.674v-95.726h-127.674v95.726M575.837 96.736h-127.674v95.724h127.674l0-95.724M448.163 352.085h127.674v-95.724h-127.674v95.724M384.325 799.007h255.349v-63.837l-255.349 0v63.837M224.695 192.523h127.681v-95.726l-127.681 0v95.726M224.695 352.085h127.681v-95.724h-127.681v95.724M224.695 511.71h127.681v-95.726h-127.681v95.726M304.514 639.383c-26.418 0-47.862 21.444-47.862 47.862l0 159.622c0 26.418 21.444 47.864 47.862 47.864 26.4 0 47.862-21.446 47.862-47.864v-159.622c-0.001-26.417-21.383-47.862-47.862-47.862v0M304.514 639.383z"  horiz-adv-x="1024" />

    
    <glyph glyph-name="pack" unicode="&#58916;" d="M486.607 326.138l-485.324 394.742h143.798l366.692-305.409 366.692 305.409h143.802l-485.329-394.742zM511.772 130.94l366.692 305.418h143.802l-485.329-394.741h-50.33l-485.324 394.741h143.798z"  horiz-adv-x="1024" />

    
    <glyph glyph-name="start-difficulty" unicode="&#58917;" d="M513.411 882.252l167.793-305.449 341.274-65.804-237.563-254.581 43.119-346.111-314.623 148.122-314.627-148.122 43.119 346.111-237.558 254.581 341.27 65.804 167.797 305.449z"  horiz-adv-x="1024" />

    
    <glyph glyph-name="show" unicode="&#58918;" d="M486.607 437.382l-485.324-394.741h143.798l366.692 305.408 366.692-305.408h143.802l-485.329 394.741zM511.772 632.579l366.692-305.418h143.802l-485.329 394.742h-50.33l-485.324-394.742h143.798z"  horiz-adv-x="1024" />

    
    <glyph glyph-name="hows-small-icon" unicode="&#58919;" d="M527.781 896l347.319-397.797h-694.639l347.319 397.797zM527.781-126.802l-347.319 397.797h694.639l-347.319-397.797z"  horiz-adv-x="1024" />

    
    <glyph glyph-name="pe-accredit" unicode="&#58920;" d="M391.721 467.698l-385.531-385.532v-204.224h204.087l0.301 0.301v155.862h155.862l0.274 0.273v155.87h155.862l73.315 73.308c31.876-10.553 65.895-16.342 101.289-16.342 177.763 0 321.863 144.094 321.863 321.863 0 177.755-144.102 321.856-321.866 321.856s-321.834-144.101-321.834-321.856c0-35.429 5.797-69.503 16.377-101.379v0zM725.517 491.014c-59.988 0-108.596 48.639-108.596 108.592 0 59.986 48.609 108.596 108.596 108.596 59.959 0 108.598-48.61 108.598-108.596 0-59.953-48.639-108.592-108.598-108.592v0z"  horiz-adv-x="1024" />

    
    <glyph glyph-name="exclusive-category-icon" unicode="&#58921;" d="M879.405 62.341c-11.209 3.723-21.804-1.873-29.329-15.022-9.354-16.344-10.358-43.192-7.154-60.090 7.869-41.491 41.627-59.347 41.627-59.347l-674.276-0c-40.84 0-74.162 32.412-75.793 72.83 0.030 0.727 0.15 1.425 0.15 2.151-0.030 1.184-0.059 3.033-0.090 5.458 2.341 39.781 35.362 71.463 75.732 71.463h694.527c2.122 0 4.169 0.304 6.142 0.789 0.149 0 0.317-0.060 0.468-0.060 14.828 0 26.866 12.037 26.866 26.864l-0 759.489c0 14.84-12.037 26.87-26.866 26.87h-701.105c-71.525 0-129.71-58.185-129.71-129.685 0-0.963 0.189-1.864 0.296-2.813-0.090-66.052-0.917-672.964-0.090-752.767-0.046-1.546-0.236-3.092-0.236-4.639 0-68.766 53.842-125.041 121.554-129.286 1.348-0.212 2.682-0.425 4.092-0.425h705.201c14.857 0 30.685 12.177 30.609 24.925 0 0 1.445 10.214-8.313 27.712-11.639 20.87-37.134 29.929-51.165 54.993-7.292 13.027-6.537 35.859-0.897 44.318 8.868 13.302 12.158 31.488-2.239 36.27zM809.027 724.943c0-21.062-17.074-38.136-38.135-38.136l-510.423-0c-21.062 0-38.135 17.074-38.135 38.136v0c0 21.062 17.074 38.136 38.135 38.136h510.423c21.061-0.001 38.135-17.075 38.135-38.136v0zM809.027 536.642c0-21.062-17.074-38.136-38.135-38.136h-510.423c-21.062 0-38.135 17.074-38.135 38.136v0c0 21.062 17.074 38.135 38.135 38.135h510.423c21.061 0.001 38.135-17.073 38.135-38.135v0zM613.876 345.794c0-21.062-11.395-38.136-25.451-38.136l-340.641-0c-14.056 0-25.451 17.074-25.451 38.136v0c0 21.062 11.395 38.136 25.451 38.136l340.641 0c14.056-0.001 25.451-17.074 25.451-38.136v0z"  horiz-adv-x="1024" />

    
    <glyph glyph-name="clear-contents" unicode="&#58923;" d="M511.53 895.179c-281.98 0-510.688-228.661-510.688-510.688 0-282.044 228.676-510.688 510.688-510.688 282.044 0 510.688 228.595 510.688 510.688 0 281.979-228.643 510.688-510.688 510.688v0zM746.193 225.642c9.751-9.697 15.749-23.075 15.749-37.907 0-29.665-23.99-53.655-53.655-53.655-14.724 0-28.211 5.998-37.907 15.749l-158.849 158.757-158.74-158.812c-9.768-9.75-23.183-15.748-38.016-15.748-29.575 0-53.618 23.989-53.618 53.673 0 14.833 5.998 28.175 15.694 37.872l158.83 158.919-158.796 158.794c-9.713 9.734-15.694 23.148-15.694 37.963 0 29.629 24.027 53.655 53.656 53.655 14.779 0 28.192-5.979 37.925-15.694l158.74-158.83 158.849 158.794c9.697 9.697 23.183 15.694 37.907 15.694 29.61 0 53.655-23.989 53.655-53.655 0-14.833-5.998-28.246-15.748-37.961l-158.739-158.74 158.757-158.866z"  horiz-adv-x="1024" />

    
    <glyph glyph-name="up" unicode="&#58924;" d="M537.515 890.549c0.299-0.077 0.598-0.442 0.896-0.584 8.261-3.513 16.174-8.351 22.999-15.086 0.063-0.077 0.063-0.152 0.143-0.219 0.063-0.077 0.142-0.077 0.219-0.142l364.67-363.648c28.55-28.56 28.784-74.844 0.157-103.547-28.56-28.64-74.92-28.707-103.547-0.143l-229.019 220.22v-681.865c0-40.429-40.911-73.233-81.329-73.233s-81.346 32.804-81.346 73.233l-0 685.756-232.078-226.614c-28.485-28.784-74.767-28.992-103.55-0.584-14.488 14.282-21.74 33.166-21.74 52.067 0 18.599 7.097 37.201 21.159 51.483l362.698 366.733c21.468 21.584 53.090 27.083 79.668 16.174v0 0z"  horiz-adv-x="1024" />

    
    <glyph glyph-name="down" unicode="&#58925;" d="M537.515-122.248c0.299 0.077 0.598 0.442 0.896 0.584 8.261 3.513 16.174 8.351 22.999 15.086 0.063 0.077 0.063 0.152 0.143 0.219 0.063 0.077 0.142 0.077 0.219 0.143l364.671 363.647c28.55 28.56 28.784 74.844 0.157 103.547-28.56 28.64-74.92 28.707-103.547 0.143l-229.019-220.22v681.865c0 40.429-40.911 73.233-81.329 73.233s-81.346-32.804-81.346-73.233v-685.756l-232.078 226.614c-28.485 28.784-74.767 28.992-103.55 0.584-14.488-14.282-21.74-33.166-21.74-52.067 0-18.599 7.097-37.201 21.159-51.483l362.699-366.732c21.467-21.585 53.089-27.084 79.667-16.175v0 0z"  horiz-adv-x="1024" />

    
    <glyph glyph-name="new-add" unicode="&#58909;" d="M929.453 475.549h-327.633v327.233c0 51.274-39.51 92.928-90.877 92.928-51.342 0.001-90.852-41.652-90.852-92.926v-327.235l-327.050 0c-51.321 0-92.928-42.643-92.928-93.986 0-51.367 41.609-94.010 92.928-94.010h327.050v-321.182c0-51.322 39.51-92.928 90.852-92.928 51.367 0 90.877 41.609 90.877 92.928l-0 321.182h327.632c51.275 0 92.928 42.643 92.928 94.010 0.002 51.342-41.653 93.986-92.927 93.986z"  horiz-adv-x="1024" />

    
    <glyph glyph-name="complete-management" unicode="&#58927;" d="M461.223 111.733c-12.259 0-24.518 4.683-33.868 14.046l-196.966 196.936c-18.689 18.704-16.552 50.755 2.138 69.46 18.685 18.703 50.927 20.89 69.621 2.187l159.076-154.614 411.765 407.614c18.704 18.703 53.956 15.379 72.658-3.324 18.669-18.68 18.669-48.997 0-67.704l-450.591-450.569c-9.34-9.35-21.609-14.032-33.832-14.032v0M512.046-125.959c-281.399 0-510.34 228.936-510.34 510.332 0 281.4 228.941 510.341 510.34 510.341 100.38 0 197.55-29.128 280.959-84.237 16.801-11.098 21.415-33.709 10.332-50.509-11.097-16.791-34.391-27.109-51.191-16.012-71.466 47.218-154.053 65.395-240.1 65.395-241.213 0-424.977-183.766-424.977-424.977 0-241.207 183.766-424.973 424.977-424.973 241.207 0 433.34 184.449 433.34 425.654 0 15.224-1.090 28.879-2.647 43.892-2.073 20.032 16.896 38.93 36.919 40.993 20.004 2.078 37.938-12.488 40.001-32.506 1.81-17.491 2.721-35.334 2.721-53.059-0.001-281.398-228.937-510.334-510.334-510.334v0M512.046-125.959z"  horiz-adv-x="1024" />

    
    <glyph glyph-name="pageUp" unicode="&#58910;" d="M512 713.795l509.126-583.12h-1018.251l509.126 583.12z"  horiz-adv-x="1024" />

    
    <glyph glyph-name="pageDown" unicode="&#58911;" d="M512 41.594l-509.126 583.12h1018.252l-509.127-583.12z"  horiz-adv-x="1024" />

    
    <glyph glyph-name="security" unicode="&#58912;" d="M371.007 493.572l-53.074 34.698c-27.215-47.626-49.672-71.444-104.102-111.585l50.347-47.631c51.033 44.229 73.492 70.083 106.829 124.518zM512.534 305.094c112.271 0 140.847 3.401 161.943 18.369 17.009 12.247 24.493 36.745 28.575 93.902-28.575 4.762-41.507 8.164-66.001 18.369-1.361-70.764-2.721-71.444-110.231-71.444-23.133 0-29.936 0-43.544 0.68 32.658 18.369 59.878 36.74 91.175 61.239 27.22 21.772 78.247 66.001 99.345 86.412 12.247 12.247 12.247 12.247 21.091 20.411l-61.917 39.467c-42.188-56.476-105.468-109.55-184.396-155.815v74.846c0 21.091 0.68 33.338 2.721 48.306h-75.526c2.721-15.648 3.401-28.575 3.401-49.666v-108.87c-63.96-27.215-118.394-44.91-180.994-59.197 14.294-20.411 19.737-31.297 32.663-66.682 64.64 21.091 124.518 44.229 166.020 63.96 17.016-10.886 42.19-14.287 115.675-14.287zM760.209 215.955c0 25.86 0.68 40.147 3.401 56.476h-78.928c2.721-17.009 3.401-29.255 3.401-49.666v-52.393l-139.485-0v70.083c0 25.854 0.68 38.101 3.401 51.033h-79.608c2.721-13.613 3.401-26.539 3.401-50.353v-70.764h-136.084v46.951c0 19.050 1.361 34.018 3.401 44.904h-77.573c2.721-14.287 3.401-25.854 3.401-46.95l-0-46.267c0-27.22-1.361-46.951-4.082-67.362 9.531 0.68 12.252 0.68 18.376 0.68 12.247 0 12.247 0 26.534 0.68 6.123 0.68 14.968 0.68 27.22 0.68h351.096v-27.9h76.207c-2.722 19.056-4.082 40.147-4.082 66.682l-0 73.485zM217.914 502.416h72.805v81.65h183.715l-34.024-28.575c30.622-19.056 48.311-34.704 79.608-71.444l50.353 46.945c-17.69 21.096-19.050 21.777-62.599 53.074h229.986v-83.011h72.804c-2.041 14.287-2.721 27.895-2.721 51.033v53.749c0 20.417 0.68 31.982 2.721 46.95-22.457-2.721-38.786-3.401-72.804-3.401l-179.634-0c-7.484 20.411-12.927 31.303-29.261 59.878l-76.887-22.452c10.886-17.015 12.247-20.417 20.417-37.425h-180.994c-34.024 0-48.311 0.68-73.485 3.401 2.041-16.329 2.721-28.575 2.721-46.271v-51.027c-0-25.178-0.68-38.785-2.721-53.074zM720.063 507.178l-55.109-36.745c44.904-43.544 66.001-71.444 99.338-129.28l59.197 44.91c-43.549 61.238-53.075 72.804-103.427 121.115zM512.733 895.503c-281.824 0-510.279-228.455-510.279-510.274s228.455-510.274 510.279-510.274c281.812 0 510.268 228.455 510.268 510.274s-228.455 510.274-510.268 510.274zM512.727-68.347c-250.504 0-453.576 203.072-453.576 453.576s203.072 453.576 453.576 453.576 453.576-203.072 453.576-453.576-203.071-453.576-453.576-453.576z"  horiz-adv-x="1024" />

    
    <glyph glyph-name="step-circle" unicode="&#58922;" d="M511.835 895.114c-282.23 0-511.023-228.793-511.023-511.023s228.793-511.022 511.023-511.022c282.229 0 511.023 228.793 511.023 511.023s-228.793 511.022-511.023 511.022zM511.835-65.608c-248.364 0-449.7 201.334-449.7 449.7s201.337 449.699 449.7 449.699c248.363 0 449.7-201.334 449.7-449.7s-201.338-449.699-449.7-449.699z"  horiz-adv-x="1024" />

    
    <glyph glyph-name="top-secret-paper" unicode="&#58928;" d="M602.447 475.343c-116.124 0-210.262-94.137-210.262-210.262s94.137-210.262 210.262-210.262c116.124 0 210.262 94.137 210.262 210.262s-94.137 210.262-210.262 210.262zM687.319 172.010v44.040h39.666v-89.828h-39.666v11.957h-200.366v72.038h39.666v-38.206h58.913v38.789h-7.291c-18.181 0-29.652 7.146-34.415 21.437-20.029-6.223-41.611-11.618-64.747-16.187-6.223 14.776-11.57 26.928-16.041 36.457 28.873 4.666 54.926 10.547 78.163 17.646v62.268h38.789v-47.978c31.302 14.193 58.524 36.407 81.663 66.643l30.332-20.707c-30.819-38.11-67.275-66.157-109.37-84.142 2.333-2.723 6.221-4.036 11.666-3.937h41.414c7.874 0 12.807 2.479 14.802 7.437 1.991 4.958 3.864 15.604 5.615 31.936 11.093-4.672 20.708-8.467 28.843-11.384-6.784 8.926-13.749 17.554-20.912 25.865l24.075 17.125c12.078-12.41 25.894-28.212 41.449-47.406l-27.301-19.607c-3.597 5.273-7.262 10.439-10.977 15.521-2.457-10.992-4.826-19.73-7.105-26.196-2.675-7.582-5.76-12.858-9.261-15.822-3.5-2.966-8.239-5.202-14.217-6.708-5.978-1.508-13.051-2.26-21.218-2.26h-11.083v-38.789h58.913zM742.441 322.794h-39.373v32.373h-92.6c5.929-7.291 12.784-16.237 20.562-26.832l-29.457-18.666c-9.14 14.193-18.082 26.733-26.832 37.623l12.686 7.874h-75.684v-21.728l25.666-19.395c-14.779-18.472-29.749-35.097-44.915-49.873l-25.373 23.624c12.249 12.249 23.186 23.916 32.811 34.998h-27.562v65.913h108.057c-2.528 8.166-4.717 14.874-6.562 20.124l50.165 6.125c1.651-6.223 3.838-14.973 6.562-26.249h111.849v-65.911zM692.569 267.672c-2.375 0.775-4.913 1.647-7.613 2.616 2.13-2.802 4.24-5.637 6.334-8.501 0.424 1.897 0.851 3.854 1.28 5.886zM880.422 861.193h-582.708c-53.064 0-96.081-43.017-96.081-96.081v-765.030c0-53.064 43.017-96.081 96.081-96.081h582.708c53.064 0 96.081 43.017 96.081 96.081v765.029c0 53.064-43.016 96.082-96.081 96.082zM365.884 755.45h423.002c5.949 0 10.771-4.823 10.771-10.771 0-5.949-4.822-10.771-10.771-10.771h-423.002c-5.949 0-10.771 4.822-10.771 10.771 0 5.947 4.822 10.771 10.771 10.771zM365.884 683.491h423.002c5.949 0 10.771-4.822 10.771-10.771s-4.822-10.771-10.771-10.771h-423.002c-5.949 0-10.771 4.823-10.771 10.771 0 5.949 4.822 10.771 10.771 10.771zM365.884 613.398h423.002c5.949 0 10.771-4.823 10.771-10.771 0-5.949-4.822-10.771-10.771-10.771h-423.002c-5.949 0-10.771 4.823-10.771 10.771 0 5.949 4.822 10.771 10.771 10.771zM602.447 5.988c-142.439 0-257.91 115.47-257.91 257.91s115.47 257.909 257.91 257.909 257.91-115.47 257.91-257.91-115.47-257.909-257.91-257.909zM48.96 713.414v-661.635c0-45.892 37.204-83.096 83.096-83.096h33.289v827.826h-33.289c-45.892 0-83.096-37.203-83.096-83.095z"  horiz-adv-x="1024" />

    
    <glyph glyph-name="normal-paper" unicode="&#58929;" d="M320.472 796.391h-319.213v-798.031h287.292c63.344 1.123 163.222-0.667 191.529-47.299v35.746c-1.205 44.183-0.063 104.512 0 107.006v574.914c-0.001 74.629-80.594 127.665-159.608 127.665zM99.019 252.21c-14.869 0-26.921 12.054-26.921 26.921 0 14.869 12.054 26.921 26.921 26.921 14.869 0 26.921-12.054 26.921-26.921 0-14.869-12.054-26.921-26.921-26.921zM99.019 385.289c-14.869 0-26.921 12.054-26.921 26.921 0 14.869 12.054 26.921 26.921 26.921 14.869 0 26.921-12.054 26.921-26.921 0-14.868-12.054-26.921-26.921-26.921zM99.019 506.106c-14.869 0-26.921 12.054-26.921 26.921 0 14.869 12.054 26.921 26.921 26.921 14.869 0 26.921-12.054 26.921-26.921 0-14.868-12.054-26.921-26.921-26.921zM346.538 264.802h-179.047c-7.434 0-13.461 6.415-13.461 14.329 0 7.914 6.026 14.329 13.461 14.329h179.047c7.434 0 13.461-6.415 13.461-14.329-0-7.914-6.026-14.329-13.461-14.329zM346.538 397.882h-179.047c-7.434 0-13.461 6.415-13.461 14.329 0 7.914 6.026 14.329 13.461 14.329h179.047c7.434 0 13.461-6.415 13.461-14.329-0-7.914-6.026-14.329-13.461-14.329zM346.538 518.698h-179.047c-7.434 0-13.461 6.415-13.461 14.329 0 7.914 6.026 14.329 13.461 14.329h179.047c7.434 0 13.461-6.415 13.461-14.329-0-7.913-6.026-14.329-13.461-14.329zM1022.739 796.475h-319.21c-79.015 0-159.608-53.037-159.608-127.583v-574.312c0.042-2.452 1.206-62.804 0-106.883v-35.725c28.305 46.575 128.184 48.401 191.528 47.239h287.291l-0.001 797.264zM872.855 264.802h-179.047c-7.434 0-13.461 6.415-13.461 14.329 0 7.914 6.026 14.329 13.461 14.329h179.047c7.434 0 13.461-6.415 13.461-14.329 0-7.914-6.027-14.329-13.461-14.329zM872.855 397.882h-179.047c-7.434 0-13.461 6.415-13.461 14.329 0 7.914 6.026 14.329 13.461 14.329h179.047c7.434 0 13.461-6.415 13.461-14.329 0-7.914-6.027-14.329-13.461-14.329zM872.855 518.698h-179.047c-7.434 0-13.461 6.415-13.461 14.329 0 7.914 6.026 14.329 13.461 14.329h179.047c7.434 0 13.461-6.415 13.461-14.329 0-7.913-6.027-14.329-13.461-14.329z"  horiz-adv-x="1024" />

    
    <glyph glyph-name="a-page" unicode="&#58930;" d="M323.62 383.192c0 0 285.769 450.59 310.231 487.505s53.162 25.571 59.092 14.772c4.139-7.537 13.748-17.831-14.772-59.092s-295.458-443.186-295.458-443.186 301.745-445.74 310.231-457.959 11.254-35.133 0-44.318c-19.243-15.701-44.655-8.329-59.092 14.772-29.46 47.143-310.231 487.505-310.231 487.505z"  horiz-adv-x="1024" />

    
    <glyph glyph-name="next-page" unicode="&#58931;" d="M390.15-104.314c-14.436-23.102-39.849-30.473-59.092-14.772-11.254 9.186-8.485 32.098 0 44.318 8.485 12.22 310.23 457.959 310.23 457.959s-266.937 401.927-295.458 443.187-18.913 51.554-14.772 59.092c5.93 10.799 34.631 22.141 59.092-14.772s310.23-487.505 310.23-487.505-280.77-440.363-310.23-487.507z"  horiz-adv-x="1024" />

    
    <glyph glyph-name="solid-circle-chekced" unicode="&#58932;" d="M511.833 894.443c-281.514 0-510.512-229-510.512-510.513 0-281.512 228.999-510.512 510.512-510.512 281.513 0 510.629 229.001 510.629 510.512-0.116 281.514-229.116 510.513-510.629 510.513zM828.902 526.147l-381.043-381.158c-9.122-9.124-23.976-9.124-33.098 0l-215.433 215.433c-9.122 9.122-9.122 23.975 0 33.098l49.939 49.939c9.122 9.122 23.976 9.122 33.098 0l148.886-148.767 314.61 314.61c9.122 9.124 23.976 9.124 33.215 0l49.824-50.057c9.24-9.122 9.24-23.975 0.001-33.098z"  horiz-adv-x="1024" />

    
    <glyph glyph-name="preview" unicode="&#58933;" d="M512.001 688.862c-304.862 0-508.105-304.862-508.105-304.862s203.242-304.861 508.105-304.861c304.861 0 508.103 304.861 508.103 304.861s-203.39 304.862-508.103 304.862v0 0zM512.001 183.003c-111.649 0-202.196 90.545-202.196 202.194 0 111.651 90.545 202.196 202.196 202.196 111.648 0 202.194-90.545 202.194-202.196-0.149-111.797-90.545-202.194-202.194-202.194v0 0zM410.379 384.598c0-26.49 10.926-52.829 29.633-71.538s45.048-29.633 71.538-29.633c26.492 0 52.831 10.926 71.54 29.633 18.707 18.707 29.633 45.048 29.633 71.538 0 26.491-10.926 52.831-29.633 71.54-18.707 18.707-45.048 29.633-71.54 29.633-26.49 0-52.829-10.926-71.538-29.633-18.707-18.859-29.633-45.049-29.633-71.54v0 0z"  horiz-adv-x="1024" />

    
    <glyph glyph-name="an-arrow-indicator" unicode="&#58934;" d="M393.478 778.248v-123.097l507.119-268.165-507.119-268.165v-127.488l629.532 347.296v92.322zM629.552 430.952l-629.531 347.296v-123.097l507.119-268.165-507.119-268.165v-127.488l629.531 347.296z"  horiz-adv-x="1024" />

    
    <glyph glyph-name="indicative-arrow-two" unicode="&#58935;" d="M629.552 778.248v-123.097l-507.119-268.165 507.119-268.165v-127.488l-629.531 347.296v92.322zM393.478 430.952l629.532 347.296v-123.097l-507.119-268.165 507.119-268.165v-127.488l-629.532 347.296z"  horiz-adv-x="1024" />

    
    <glyph glyph-name="indicative-arrow-third" unicode="&#58936;" d="M197.234 430.952l629.531 347.296v-123.097l-507.118-268.165 507.118-268.165v-127.488l-629.531 347.296z"  horiz-adv-x="1024" />

    
    <glyph glyph-name="indicative-arrow" unicode="&#58937;" d="M826.765 430.952l-629.531 347.296v-123.097l507.119-268.165-507.119-268.165v-127.488l629.531 347.296z"  horiz-adv-x="1024" />

    
    <glyph glyph-name="inputDele" unicode="&#58938;" d="M512 892.449c-280.809 0-508.45-227.642-508.45-508.449 0-280.809 227.641-508.45 508.45-508.45s508.449 227.641 508.449 508.45c0 280.809-227.642 508.449-508.449 508.449zM802.992 147.785c16.038-16.189 15.917-42.314-0.272-58.35-16.189-16.035-42.314-15.914-58.352 0.274l-231.838 234.021-234.487-232.3c-16.191-16.035-42.314-15.914-58.35 0.274-16.037 16.19-15.914 42.312 0.272 58.35l234.489 232.302-232.78 234.971c-16.035 16.189-15.914 42.314 0.276 58.35 16.189 16.037 42.312 15.914 58.349-0.274l232.778-234.972 234.506 232.317c16.192 16.037 42.315 15.914 58.352-0.274 16.037-16.187 15.914-42.314-0.274-58.35l-234.507-232.317 231.838-234.022z"  horiz-adv-x="1024" />

    
    <glyph glyph-name="pe-video" unicode="&#58939;" d="M511.999 894.231c-282.472 0-510.524-228.052-510.524-510.524 0-282.474 228.916-510.525 510.524-510.525s510.525 228.917 510.525 510.525c-0 282.472-228.051 510.524-510.525 510.524v0zM511.999-50.803c-240.145 0-434.507 194.363-434.507 434.509s194.362 434.507 434.507 434.507 434.508-194.362 434.508-434.507-194.363-434.509-434.508-434.509v0zM707.227 419.123l-263.47 152.035c-26.778 15.549-61.331-4.319-61.331-35.417l0-304.934c0-31.098 33.688-50.966 61.331-35.417l263.47 152.035c26.778 16.413 26.778 56.149-0 71.698v0z"  horiz-adv-x="1024" />

    
    <glyph glyph-name="flag" unicode="&#58940;" d="M375.466 896h273.066l0-1024h-273.066v1024z"  horiz-adv-x="1024" />

    
    <glyph glyph-name="pe-audio" unicode="&#58941;" d="M720.998 580.125c-21.654 21.653-56.759 21.653-78.412 0-21.653-21.653-21.653-56.759 0-78.412 64.959-64.959 64.959-170.274 0-235.23-21.653-21.654-21.653-56.757 0-78.412 21.653-21.653 56.757-21.653 78.412 0 108.262 108.264 108.262 283.791 0 392.054zM461.358 783.306v0.001l-236.574-177.431h-147.929c-41.124 0-73.849-32.792-73.849-73.244v-297.068c0-39.907 33.063-73.244 73.849-73.244h147.93l236.573-177.432c32.889-24.666 59.131-11.167 59.131 29.762v738.895c-0.001 40.417-26.475 54.254-59.131 29.762zM877.82 736.942c-21.654 21.653-56.757 21.653-78.412 0-21.653-21.653-21.653-56.757 0-78.41 151.568-151.568 151.568-397.308 0-548.874-21.653-21.653-21.653-56.757 0-78.412 21.653-21.653 56.757-21.653 78.412 0v0.003c194.872 194.872 194.872 510.823 0 705.692z"  horiz-adv-x="1024" />

    
    <glyph glyph-name="show-analysis" unicode="&#58942;" d="M1014.943 413.421c0 0-213.858 318.448-502.956 318.448s-502.956-318.448-502.956-318.448c-11.272-16.786-11.272-44.286 0-61.072 0 0 213.858-318.448 502.956-318.448s502.956 318.448 502.956 318.448c11.308 16.787 11.308 44.286-0 61.072v0zM511.987 107.468c-218.464 0-396.307 223.838-434.38 275.418 38.214 51.755 215.986 275.418 434.38 275.418 218.464 0 396.307-223.838 434.38-275.418-38.213-51.755-215.986-275.418-434.38-275.418v0zM511.987 592.276c-115.653 0-209.391-93.738-209.391-209.391s93.738-209.391 209.391-209.391 209.391 93.738 209.391 209.391-93.738 209.391-209.391 209.391v0zM511.987 243.291c-76.986 0-139.593 62.607-139.593 139.593s62.607 139.593 139.593 139.593 139.593-62.607 139.593-139.593-62.607-139.593-139.593-139.593v0z"  horiz-adv-x="1024" />

    
    <glyph glyph-name="hide-analysis" unicode="&#58943;" d="M1016.521 460.735c-9.947-16.665-32.008-22.369-49.264-12.752l-32.129 17.914c-13.291-26.565-31.323-54.662-55.198-81.698l28.969-28.003c14.090-13.624 14.090-35.687 0-49.288-14.074-13.624-36.918-13.624-50.985 0l-29.723 28.71c-28.877-22.274-63.878-42.027-105.269-57.843l10.861-39.152c5.163-18.598-6.268-37.714-25.504-42.687-19.23-4.973-39.007 6.058-44.17 24.632l-10.113 36.488c-31.634-7.165-66.377-12.139-104.49-14.426v-60.13c0-19.516-15.84-35.357-35.357-35.357-19.516 0-35.357 15.84-35.357 35.357v61.804c-43.253 4.031-81.745 11.762-116.229 22.133l-11.974-44.738c-5.068-18.856-24.444-30.053-43.3-25.009-18.88 5.067-30.077 24.444-25.010 43.3l13.836 51.691c-36.488 17.467-66.99 38.28-92.304 60.814l-43.23-43.206c-13.813-13.813-36.206-13.813-49.995 0-13.813 13.813-13.813 36.182 0 49.995l44.879 44.879c-20.742 27.084-35.993 54.615-47.118 80.001l-54.992-31.75c-16.901-9.758-38.539-3.96-48.297 12.941-9.758 16.901-3.984 38.539 12.941 48.298l61.238 35.356c2.027 1.155 4.101 2.074 6.223 2.805-3.135 13.154-4.973 23.925-6.034 31.397h-1.344c0 2.004 0.259 3.937 0.588 5.846-0.425 3.725-0.588 5.94-0.588 5.94h2.168c4.856 13.695 17.82 23.572 33.188 23.572 15.369 0 28.332-9.877 33.189-23.572h2.168c70.714-285.377 377.139-282.854 377.139-282.854s306.423 0.094 377.139 282.548h2.072c4.789 13.86 17.797 23.878 33.286 23.878 15.484 0 28.497-10.018 33.28-23.878h2.078c0 0-0.167-2.168-0.57-5.798 0.305-1.862 0.57-3.725 0.57-5.681h-1.324c-1.508-10.889-4.737-28.992-11.339-51.338l42.196-23.524c17.25-9.643 23.168-30.951 13.198-47.615v0z"  horiz-adv-x="1024" />

    
    <glyph glyph-name="caution-tip" unicode="&#58944;" d="M511.689 895.161c-281.957 0-510.527-228.559-510.527-510.506 0-281.942 228.571-510.506 510.527-510.506 281.952 0 510.522 228.564 510.522 510.506 0 281.947-228.571 510.506-510.522 510.506v0M511.689 34.507c-35.947 0-65.083 29.14-65.083 65.079s29.137 65.078 65.083 65.078c35.942 0 65.078-29.139 65.078-65.078s-29.138-65.079-65.078-65.079v0M576.767 323.059c0-35.94-29.137-65.079-65.078-65.079-35.947 0-65.083 29.14-65.083 65.079v326.087c0 35.941 29.137 65.072 65.083 65.072 35.942 0 65.078-29.131 65.078-65.072v-326.087M576.767 323.059z"  horiz-adv-x="1024" />

    
    <glyph glyph-name="unchecked-radio" unicode="&#58945;" d="M512 895.36c-281.951 0-510.525-228.569-510.525-510.512 0-281.957 228.575-510.525 510.525-510.525 281.957 0 510.525 228.569 510.525 510.525-0.001 281.943-228.569 510.512-510.525 510.512zM512-60.617c-246.020 0-445.458 199.438-445.458 445.458s199.438 445.46 445.458 445.46 445.458-199.438 445.458-445.458-199.438-445.46-445.458-445.46z"  horiz-adv-x="1024" />

    
    <glyph glyph-name="checked-radio" unicode="&#58946;" d="M512 895.36c-281.951 0-510.525-228.569-510.525-510.525s228.575-510.525 510.525-510.525c281.957 0 510.525 228.569 510.525 510.525s-228.569 510.525-510.525 510.525zM512 193.395c-105.73 0-191.446 85.705-191.446 191.441s85.717 191.447 191.446 191.447c105.73 0 191.447-85.711 191.447-191.447-0.001-105.737-85.717-191.441-191.447-191.441z"  horiz-adv-x="1024" />

    
    <glyph glyph-name="dialog-close-btn" unicode="&#58947;" d="M544.813 386.321l327.97-327.97c10.881-10.885 11.978-27.431 2.453-36.96-9.53-9.518-26.075-8.427-36.955 2.464l-327.97 327.967-324.043-324.048c-11.022-11.018-27.772-12.135-37.423-2.488-9.646 9.657-8.534 26.406 2.483 37.433l324.043 324.037-322.248 322.896c-10.881 10.885-11.978 27.431-2.453 36.95 9.529 9.529 26.075 8.436 36.955-2.445l322.248-322.899 319.861 319.861c11.018 11.022 27.772 12.129 37.423 2.479 9.647-9.646 8.534-26.396-2.488-37.419l-319.857-319.857z"  horiz-adv-x="1024" />

    
    <glyph glyph-name="unchecked-checkbox" unicode="&#58948;" d="M902.453 894.902h-780.903c-66.523 0-120.451-53.927-120.451-120.45v-780.903c0-66.523 53.927-120.45 120.45-120.45h780.903c66.523 0 120.45 53.927 120.45 120.45l-0 780.903c0.001 66.523-53.926 120.45-120.449 120.45zM949.916 19.070c0-40.31-32.676-72.986-72.986-72.986l-729.86-0c-40.31 0-72.986 32.676-72.986 72.986l-0 729.861c0 40.31 32.676 72.986 72.986 72.986h729.86c40.31 0 72.986-32.676 72.986-72.986l0-729.861z"  horiz-adv-x="1024" />

    
    <glyph glyph-name="checked-checkbox" unicode="&#58949;" d="M901.656 895.48h-780.903c-66.523 0-120.451-53.927-120.451-120.45v-780.903c0-66.523 53.927-120.45 120.45-120.45h780.903c66.523 0 120.45 53.927 120.45 120.45l-0 780.903c0.001 66.523-53.926 120.45-120.449 120.45zM874.254 644.394l-397.955-587.84c-5.805-10.927-16.321-18.561-28.437-20.939-12.251-2.286-24.824 0.96-34.333 9.098l-253.348 239.191c-12.791 9.837-21.13 25.888-21.13 44.034 0 29.933 22.669 54.197 50.633 54.197 11.604 0 22.289-4.188 30.828-11.216l0.268 0.387 207.059-195.658 363.835 530.029c0.594 0.919 1.205 1.825 1.854 2.702l0.323 0.472 0.026-0.020c9.367 12.373 24.128 20.361 40.743 20.361 28.311 0 51.263-23.175 51.263-51.762 0-12.52-4.403-24.002-11.73-32.954l0.1-0.080z"  horiz-adv-x="1024" />

    
    <glyph glyph-name="insert-blank" unicode="&#58950;" d="M548.468 312.021c-14.104 23.507-56.416 23.507-70.521 0l-98.729-155.145c-18.805-28.207 4.701-61.117 37.611-61.117h192.756c32.909 0 51.715 37.611 37.61 61.117l-98.727 155.145zM446.327 408.618h131.812c18.2 0 32.954 14.753 32.954 32.954 0 18.2-14.753 32.953-32.954 32.953h-131.812c-18.2 0-32.953-14.753-32.953-32.953-0.001-18.201 14.752-32.954 32.953-32.954zM166.227 243.853h-65.906c-18.2 0-32.953 14.753-32.953 32.949l0 296.581c0 18.2 14.753 32.957 32.953 32.957h65.906c18.2 0 32.953 14.75 32.953 32.953 0 18.193-14.753 32.949-32.953 32.949l-98.86 0c-36.4 0-65.906-29.506-65.906-65.903v-362.486c0-36.4 29.506-65.906 65.906-65.906h98.859c18.2 0 32.953 14.753 32.953 32.953 0.001 18.201-14.752 32.954-32.951 32.954zM957.098 672.242h-98.859c-18.2 0-32.954-14.756-32.954-32.949 0-18.204 14.753-32.953 32.954-32.953h65.906c18.2 0 32.953-14.756 32.953-32.957v-296.58c0-18.196-14.753-32.949-32.953-32.949h-65.906c-18.2 0-32.954-14.753-32.954-32.954 0-18.2 14.753-32.953 32.954-32.953h98.859c36.4 0 65.906 29.506 65.906 65.906v362.486c0 36.396-29.506 65.902-65.906 65.902zM891.192 441.571c0 18.2-14.753 32.953-32.953 32.953h-131.812c-18.2 0-32.953-14.753-32.953-32.953s14.753-32.954 32.953-32.954h131.812c18.199-0 32.953 14.753 32.953 32.954zM298.038 474.524h-131.812c-18.2 0-32.953-14.753-32.953-32.953 0-18.2 14.753-32.954 32.953-32.954h131.812c18.2 0 32.953 14.753 32.953 32.954 0.001 18.2-14.752 32.953-32.953 32.953z"  horiz-adv-x="1024" />

    
    <glyph glyph-name="download" unicode="&#58951;" d="M480.55 639.207h63.885c17.623 0 31.943 14.319 31.943 31.943s-14.319 31.943-31.943 31.943h-63.885c-17.623 0-31.943-14.319-31.943-31.943s14.32-31.943 31.943-31.943v0 0zM512.492-126.525c281.973 0 510.415 228.662 510.415 510.415s-228.442 510.636-510.415 510.636-510.635-228.663-510.635-510.635 228.662-510.416 510.635-510.416v0 0zM512.492 830.64c246.726 0 446.751-200.025 446.751-446.751s-200.025-446.75-446.751-446.75-446.751 200.025-446.751 446.751 200.025 446.75 446.751 446.75v0 0zM481.872 144.434c16.522-18.945 43.177-18.945 59.479 0l148.697 171.166c9.693 11.235 13.658 26.655 11.896 41.194-1.982 15.64-15.2 27.096-30.84 27.096l-94.946-0v159.49c0 17.623-14.319 31.943-31.943 31.943h-63.884c-17.623 0-31.943-14.319-31.943-31.943v-159.49h-96.488c-15.641 0-28.858-11.676-30.84-27.096-1.762-14.539 2.203-29.959 11.896-41.194l148.917-171.166z"  horiz-adv-x="1024" />

    
    <glyph glyph-name="iphone" unicode="&#59122;" d="M742.912 871.424h-462.336s-66.56 1.024-66.56-69.12l-0.512-836.608s-6.144-69.12 63.488-69.12h468.48s64.512-1.024 64.512 66.048v839.68s2.048 69.12-67.072 69.12M444.928 838.144h132.608v-33.792h-132.608v33.792M395.264 838.144c9.216 0 16.384-7.68 16.384-16.896s-7.168-16.896-16.384-16.896c-9.216 0-16.384 7.68-16.384 16.896 0 9.216 7.168 16.896 16.384 16.896M511.488-36.352c-18.432 0-33.28 14.848-33.28 33.792 0 18.432 14.848 33.792 33.28 33.792s33.28-14.848 33.28-33.792c0-18.944-14.848-33.792-33.28-33.792M744.96 98.304h-466.944v672.256h467.456v-672.256h-0.512M744.96 98.304z"  horiz-adv-x="1024" />

    
    <glyph glyph-name="tip" unicode="&#59124;" d="M512 871.424c-269.312 0-487.424-218.112-487.424-487.424 0-268.8 218.112-487.424 487.424-487.424s487.424 218.112 487.424 487.424c0 268.8-218.112 487.424-487.424 487.424M508.928 43.008c-39.936 0-72.192 31.744-72.192 70.656s32.256 70.656 72.192 70.656c39.424 0 72.192-31.744 72.192-70.656s-32.256-70.656-72.192-70.656M701.952 441.856c-14.336-22.016-44.032-52.224-90.112-90.624-23.552-19.456-38.4-35.84-44.032-47.616-5.632-11.776-8.192-33.28-7.68-64.512h-102.4c0 14.848-0.512 23.552-0.512 27.136 0 33.28 5.632 60.416 16.384 81.92 10.752 21.504 32.768 45.568 66.048 72.192 32.768 26.624 52.736 44.032 58.88 52.736 9.728 13.312 14.848 27.648 14.848 43.008 0 22.016-8.704 40.448-26.112 56.32-17.408 15.36-41.472 23.552-71.168 23.552-28.672 0-52.736-8.192-72.192-24.576-19.456-16.384-35.84-52.224-39.936-74.24-3.584-20.992-104.448-29.696-103.424 12.8 1.024 42.496 23.552 88.576 61.44 121.856s87.552 50.176 148.992 50.176c65.024 0 116.224-16.896 154.624-50.688 38.4-33.792 57.344-73.216 57.344-118.272 0-25.6-6.656-49.152-20.992-71.168M701.952 441.856z"  horiz-adv-x="1024" />

    
    <glyph glyph-name="screen-drop" unicode="&#59173;" d="M880.158 658.47c-2.386-2.39-4.552-4.909-6.592-7.503l-362.261-362.463-367.461 367.465-0.492-0.492c-32.607 32.108-85.033 31.973-117.445-0.44-32.577-32.569-32.577-85.372 0-117.943 2.396-2.395 4.925-4.56 7.526-6.6l418.923-418.928 0.863 0.861c0.259-0.275 0.48-0.577 0.749-0.85 31.685-32.582 83.044-32.582 114.721 0 0.278 0.279 0.5 0.584 0.766 0.865l0.852-0.858 427.8 428.040-0.489 0.488c0.153 0.143 0.317 0.268 0.472 0.422 32.578 32.569 32.578 85.375 0 117.937-32.569 32.585-85.372 32.585-117.933 0.001z"  horiz-adv-x="1024" />

    
    <glyph glyph-name="member" unicode="&#59175;" d="M988.328 61.136c-17.3 12.56-47.87 18.721-72.755 28.439-75.125 29.505-110.909 34.481-163.638 104.274 0 0-26.898 30.454 33.89 104.984 61.261 74.77 66.238 193.262 50.834 284.739-15.049 91.595-101.431 152.62-191.365 152.62-89.701 0-176.199-61.143-191.367-152.619-15.404-91.595-8.175-208.311 50.834-284.74 50.123-64.814 10.546-124.062-16.706-144.917-30.216-23.225-42.54-25.95-100.483-51.188-24.884-10.784-63.276-25.477-84.366-41.591-54.27-41.354-33.771-102.378-33.771-102.378l751.721-0.001c-0.122 0.117 13.623 68.725-32.826 102.378zM427.855 178.206c27.254 20.855 66.712 80.101 16.709 144.917-59.128 76.429-55.691 193.262-40.288 284.739 11.849 71.689 67.541 124.655 134.133 144.325-36.614 47.279-96.334 75.716-157.714 75.716-89.699 0-176.199-61.143-191.365-152.619-15.404-91.595-8.176-208.31 50.834-284.739 50.123-64.816 10.546-124.062-16.709-144.917-30.216-23.225-42.538-25.95-100.482-51.19-24.884-10.783-63.275-25.475-84.368-41.59-54.27-41.356-33.77-102.379-33.77-102.379h219.923c5.688 11.968 14.694 24.173 28.793 34.956 21.092 16.115 59.366 30.808 84.369 41.59 57.825 25.121 59.72 27.965 89.935 51.19z"  horiz-adv-x="1024" />

    
    <glyph glyph-name="freeze" unicode="&#59176;" d="M635.729 75.079h-247.479c-17.076 0-30.935-13.859-30.935-30.935s13.859-30.935 30.935-30.935h247.479c17.076 0 30.935 13.859 30.935 30.935s-13.859 30.935-30.935 30.935zM635.729-2.258h-247.479c-20.356 0-36.117-19.659-29.342-41.020 4.083-12.884 17.123-20.85 30.641-20.85h0.464c17.865 0 34.199-10.1 42.195-26.078l0.324-0.65c10.781-21.53 32.791-35.142 56.874-35.142h45.165c24.746 0.001 46.19 14.141 56.693 34.782l0.491 1.010c7.997 15.978 24.33 26.078 42.195 26.078h0.464c13.519 0 26.558 7.965 30.641 20.85 6.793 21.36-8.968 41.020-29.324 41.020zM637.507 152.23c19.258 174.072 199.299 212.849 199.299 417.808 0 179.392-145.425 324.817-324.818 324.817-179.392 0-324.818-145.425-324.818-324.817 0-204.96 180.042-243.737 199.299-417.808-16.241-0.928-29.156-14.276-29.156-30.749 0-17.076 13.859-30.935 30.935-30.935h247.479c17.076 0 30.936 13.859 30.936 30.935 0.001 16.473-12.915 29.821-29.156 30.749zM428.985 266.698l86.408 310.033h-170.786l212.478 302.152-67.376-249.387h176.953l-237.678-362.798z"  horiz-adv-x="1024" />

    
    <glyph glyph-name="activate" unicode="&#59177;" d="M610.018 31.643h-193.889c-13.379 0-24.236-10.857-24.236-24.236s10.857-24.236 24.236-24.236h193.889c13.379 0 24.236 10.857 24.236 24.236s-10.857 24.236-24.236 24.236zM611.412 92.088c15.088 136.376 156.141 166.757 156.141 327.333 0 140.545-113.934 254.479-254.479 254.479s-254.479-113.934-254.479-254.479c0-160.576 141.055-190.956 156.141-327.333-12.724-0.728-22.842-11.185-22.842-24.091 0-13.379 10.857-24.236 24.236-24.236h193.889c13.379 0 24.236 10.857 24.236 24.236 0 12.906-10.119 23.363-22.843 24.091zM447.189 582.239c-51.308-20.782-90.206-65.232-104.046-118.89-2.12-8.192-9.5-13.632-17.596-13.632-0.009-0-0.020-0-0.031-0-1.604 0-3.159 0.212-4.638 0.61-9.594 2.48-15.447 12.38-12.939 22.111 16.711 64.759 63.668 118.406 125.604 143.502 9.331 3.744 19.91-0.728 23.678-10.021 3.758-9.32-0.727-19.91-10.032-23.679zM610.018-28.948h-193.889c-15.947 0-28.295-15.402-22.988-32.137 3.199-10.094 13.415-16.335 24.006-16.335h0.363c14.387-0.004 26.854-8.224 32.962-20.224l0.351-0.716c8.446-16.868 25.69-27.532 44.558-27.532h35.385c19.387 0.001 36.187 11.079 44.415 27.25l0.385 0.791c6.206 12.209 18.673 20.429 33.060 20.431l0.361-0c10.591 0 20.807 6.241 24.006 16.335 5.321 16.735-7.027 32.137-22.975 32.137zM198.439 430.614c0 25.695-20.829 46.525-46.525 46.525h-60.103c-25.695 0-46.525-20.83-46.525-46.525 0-25.695 20.829-46.525 46.525-46.525h60.103c25.694-0.001 46.525 20.829 46.525 46.525zM223.532 654.166c18.236-18.101 47.694-17.992 65.796 0.245s17.992 47.694-0.245 65.796l-42.657 42.34c-18.236 18.101-47.694 17.992-65.796-0.245s-17.992-47.694 0.245-65.796l42.657-42.34zM511.945 742.017c25.692-0.379 46.828 20.142 47.206 45.834l0.886 60.097c0.379 25.692-20.142 46.828-45.834 47.206-25.692 0.379-46.828-20.142-47.206-45.834l-0.886-60.097c-0.379-25.692 20.142-46.828 45.834-47.206zM797.715 653.843l43.924 41.025c18.779 17.538 19.783 46.98 2.244 65.758-17.538 18.779-46.98 19.783-65.758 2.244l-43.924-41.025c-18.779-17.538-19.783-46.98-2.244-65.758 17.538-18.778 46.979-19.783 65.758-2.244zM932.713 476.855l-60.1 0.563c-25.694 0.24-46.718-20.393-46.958-46.087-0.24-25.694 20.393-46.718 46.088-46.958l60.1-0.563c25.694-0.24 46.718 20.393 46.958 46.087 0.24 25.694-20.393 46.718-46.088 46.958zM799.681 210.994c-17.645 18.678-47.092 19.515-65.77 1.871s-19.515-47.092-1.871-65.77l41.274-43.69c17.645-18.678 47.092-19.515 65.77-1.871s19.515 47.092 1.871 65.77l-41.274 43.69zM226.861 211.489l-43.032-41.96c-18.397-17.939-18.768-47.394-0.83-65.79 17.939-18.397 47.393-18.768 65.79-0.83l43.032 41.96c18.397 17.939 18.768 47.394 0.83 65.791-17.939 18.396-47.393 18.767-65.79 0.829z"  horiz-adv-x="1024" />

    
    <glyph glyph-name="upload-picture" unicode="&#59178;" d="M471.287 156.031c0 103.832 50.904 195.758 129.107 252.228 2.241 11.184 3.638 24.144 3.865 37.39 7.883-24.523 16.658-18.519 22.215-10.079 10.576 15.68 14.376 34.824 16.156 53.36 1.618 16.287-4.885 33.164-17.915 43.284 16.156 53.702 27.406 110.172 21.579 166.459-3.397 33.5-15.099 67.763-40.499 91.028-17.438 16.13-40.655 24.453-63.803 27.987-5.669 8.502-12.801 16.107-21.622 21.369-23.825 14.649-52.512 18.386-79.981 18.945-48.577-0.743-99.643-8.909-139.76-38.158-20.046-14.397-36.091-34.169-46.703-56.417-13.077-27.202-18.585-57.483-19.825-87.474-1.932-48.546 6.617-96.807 18.36-143.735-12.309-9.585-18.92-25.244-18.088-40.764 0.967-15.366 4.027-30.798 10.214-44.973 5.445-13.026 15.951-24.769 30.394-27.357 3.692-26.727 12.717-52.552 25.36-76.328 7.403-13.229 15.454-26.751 27.807-35.976 0.023-32.325 1.346-64.841-2.432-96.985-9.921-28.421-36.965-45.628-62.23-59.171-55.167-27.83-115.957-43.693-168.736-76.355-22.905-14.649-44.682-31.975-60.727-54.156-20.743-28.187-31.093-62.88-33.14-97.568 191.996 0.028 383.98 0.013 575.967 0.016-64.717 56.979-105.563 140.428-105.563 233.43zM780.421 401.686c-134.339 0-243.243-108.904-243.243-243.242 0-134.34 108.904-243.243 243.243-243.243s243.243 108.903 243.243 243.243c0.001 134.338-108.904 243.242-243.243 243.242zM944.729 143.639c0-10.707-10.361-19.387-23.145-19.387h-106.973v-106.971c0-12.784-8.679-23.145-19.384-23.145h-29.611c-10.707 0-19.384 10.359-19.384 23.145v106.971h-106.972c-12.782 0-23.143 8.68-23.143 19.387v29.611c0 10.707 10.359 19.387 23.143 19.387h106.972v106.971c0 12.781 8.678 23.143 19.384 23.143h29.611c10.707 0 19.384-10.361 19.384-23.143v-106.971h106.973c12.784 0 23.145-8.68 23.145-19.387v-29.611z"  horiz-adv-x="1024" />

    
    <glyph glyph-name="authority" unicode="&#59179;" d="M756.601 435.245c63.163 0 121.631-20.052 169.399-54.133 46.983 54.418 75.4 125.314 75.4 202.852 0 171.524-139.038 310.56-310.562 310.56-171.522 0-310.562-139.038-310.562-310.562-0-0.018-0-0.040-0-0.061 0-20.094 1.899-39.745 5.526-58.783l-378.197-375.941v-186.337c0-34.318 27.795-62.113 62.113-62.113h62.113v62.114h124.223v124.224h124.225v124.223h92.338c30.641 128.458 146.136 223.956 283.984 223.956zM783.884 770.178c51.459 0 93.168-41.709 93.168-93.168 0-51.462-41.709-93.169-93.168-93.169-51.461 0-93.168 41.708-93.168 93.169-0.001 51.459 41.707 93.168 93.168 93.168zM990.268 193.189h-46.293c-4.362 9.402-10.551 28.961-18.469 42.899l32.697 31.774c10.325 10.325 10.333 26.566 0.019 36.87l-37.321 37.096c-10.306 10.308-27.017 10.196-37.34-0.124l-30.873-32.74c-13.917 7.906-33.474 14.048-42.878 18.411v46.285c0 14.593-15.46 26.403-30.025 26.403h-52.783c-14.574 0-30.033-11.81-30.033-26.403v-46.294c-9.404-4.362-28.952-10.551-42.888-18.46l-31.785 32.697c-10.323 10.325-26.572 10.325-36.871 0.020l-37.096-37.333c-10.298-10.294-10.201-27.006 0.124-37.34l32.752-30.87c-7.918-13.935-14.049-33.486-18.413-42.89h-46.284c-14.604 0-26.414-15.459-26.414-30.023v-52.78c0-14.569 11.812-30.037 26.414-30.037h46.293c4.363-9.404 10.561-28.952 18.459-42.888l-32.695-31.793c-10.325-10.323-10.325-26.554-0.019-36.861l37.321-37.107c10.294-10.292 27.015-10.189 37.341 0.134l30.87 32.751c13.935-7.91 33.484-14.050 42.886-18.411v-46.293c0-14.593 15.46-26.406 30.025-26.406h52.783c14.565 0 30.033 11.813 30.033 26.415v46.293c9.404 4.364 28.951 10.557 42.897 18.467l31.785-32.694c10.323-10.325 26.555-10.325 36.861-0.018l37.106 37.319c10.298 10.307 10.192 27.018-0.132 37.34l-32.753 30.871c7.909 13.937 14.050 33.474 18.412 42.881h46.296c14.592 0 26.405 15.46 26.405 30.025v52.783c0 14.575-11.811 30.033-26.416 30.033zM753.39 18.034c-65.589 0-118.758 53.166-118.758 118.745 0 65.591 53.168 118.755 118.758 118.755 65.597 0 118.756-53.164 118.756-118.755-0.001-65.58-53.159-118.745-118.756-118.745z"  horiz-adv-x="1024" />

    
    <glyph glyph-name="removed" unicode="&#59181;" d="M796.449 457.009v326.354c0 4.024-3.14 9.609-5.756 12.070-46.711 43.935-141.961 0-190.202 0-55.321 0-113.388 80.487-194.839 80.487-70.902 0-146.795-85.848-200.266-85.848-49.829 0-153.556 51.64-197.871 5.361-1.926-2.011-5.755-5.527-5.755-8.486v-425.45c5.755-62.373 35.943-146.882 153.796-278.344 117.865-131.453 222.313-182.429 254.049-182.429 23.768 0 66.831 20.214 134.279 75.064 50.848-48.877 119.921-78.932 196.020-78.932 156.245 0 282.905 126.661 282.905 282.905 0.002 136.881-97.211 251.051-226.361 277.248zM202.623 138.032c-97.174 105.283-122.066 172.971-126.805 222.929v340.751c0 2.373-0.835 15.244 1.464 17.808 1.412 1.573 6.083 6.436 8.038 7.178 35.494 13.506 102.568-18.672 141.98-18.672 44.089 0 123.073 64.942 181.532 64.942 67.163 0 110.727-64.455 156.34-64.455 39.77 0 126.977 39.804 155.546 13.905 4.396-3.986 6.018-20.352 6.018-23.575v-236.491c-78.695-3.607-148.992-39.367-198.082-94.447-14.145 13.045-30.107 24.151-47.482 32.86 34.133 27.166 56.019 69.061 56.019 116.079 0 81.901-66.393 148.283-148.294 148.283-81.89 0-148.281-66.381-148.281-148.283 0-47.017 21.885-88.913 56.016-116.078-67.55-33.861-113.928-103.727-113.928-184.433 0-3.976 0.109-7.921 0.338-11.837h63.841c-0.288 3.906-0.646 7.857-0.428 11.837 4.59 83.521 67.927 146.859 142.443 146.859 39.434 0 76.517-17.29 103.221-46.845-22.369-40.495-35.116-87.050-35.116-136.587 0-53.986 15.128-104.434 41.366-147.351-41.796-30.791-69.712-43.143-86.272-43.143-26.173 0-112.287 43.484-209.473 148.765zM466.693 518.057c0-43.631-35.37-79.001-79.012-79.001-43.63 0-79 35.371-79 79.001 0 43.63 35.371 79.001 79 79.001 43.641 0 79.012-35.372 79.012-79.001zM896.942 84.968c15.71-15.71 15.236-41.707-0.495-57.437-15.737-15.737-41.736-16.211-57.444-0.501l-102.484 102.484-96.54-96.539c-15.723-15.723-40.061-16.883-55.799-1.144-15.73 15.73-14.572 40.068 1.152 55.792l96.539 96.539-99.131 99.131c-15.723 15.723-15.237 41.707 0.501 57.445 15.73 15.73 41.713 16.218 57.437 0.494l99.131-99.131 101.784 101.784c15.71 15.71 40.061 16.883 55.791 1.151 15.737-15.737 14.565-40.089-1.144-55.799l-101.783-101.783 102.485-102.486z"  horiz-adv-x="1024" />

    
    <glyph glyph-name="show-category" unicode="&#59180;" d="M597.087 299.605h-170.175c-46.994 0-85.088 38.094-85.088 85.088s38.094 85.088 85.088 85.088h170.175c46.994 0 85.088-38.094 85.088-85.088s-38.094-85.088-85.088-85.088zM597.087 725.042h-170.175c-46.994 0-85.088 38.094-85.088 85.088s38.094 85.088 85.088 85.088h170.175c46.994 0 85.088-38.094 85.088-85.088s-38.094-85.088-85.088-85.088zM426.912 44.343h170.175c46.994 0 85.088-38.094 85.088-85.088s-38.094-85.088-85.088-85.088h-170.175c-46.994 0-85.088 38.094-85.088 85.088s38.095 85.088 85.088 85.088z"  horiz-adv-x="1024" />

    
    <glyph glyph-name="btn-arrow-up" unicode="&#59182;" d="M1.715 175.379l505.65 510.277 514.919-510.277h-1020.57z"  horiz-adv-x="1024" />

    
    <glyph glyph-name="go-top" unicode="&#59183;" d="M227.607 171.977c1.843 1.847 3.516 3.791 5.093 5.796l279.838 279.994 283.855-283.858 0.38 0.38c25.188-24.802 65.686-24.699 90.724 0.339 25.164 25.159 25.164 65.948 0 91.108-1.851 1.85-3.804 3.523-5.814 5.098l-323.607 323.612-0.667-0.666c-0.202 0.213-0.37 0.445-0.579 0.656-24.475 25.169-64.149 25.169-88.619 0-0.217-0.217-0.387-0.452-0.592-0.667l-0.658 0.663-330.466-330.651 0.377-0.377c-0.118-0.111-0.245-0.206-0.364-0.326-25.165-25.159-25.165-65.95 0-91.104 25.159-25.171 65.947-25.171 91.101-0.001z"  horiz-adv-x="1024" />

    
    <glyph glyph-name="camera" unicode="&#59184;" d="M787.902 102.615c-4.382 13.32-14.358 24.090-27.355 29.393-12.989 5.357-27.639 4.704-40.132-1.723-61.289-32.228-133.918-51.141-210.965-51.141-77.354 0-150.256 19.065-214.263 52.751-10.005 5.282-24.717 5.856-37.762 0.514-14.125-5.945-24.634-18.057-28.258-32.87l-52.769-163.937c-4.721-14.571-2.14-31.006 6.892-43.397 8.992-12.345 23.358-20.204 38.669-20.204h574.914c27.127 0 48.558 21.966 48.558 48.417 0 3.887-11.73 42.068-19.614 66.174l-37.914 116.022zM509.43 158.75c202.519 0 367.305 164.801 367.305 367.305-0.008 202.511-164.754 367.282-367.305 367.282-202.519 0-367.281-164.771-367.281-367.281 0-202.52 164.762-367.306 367.281-367.306zM509.43 738.983c117.557 0 212.959-95.395 212.959-212.928 0-117.675-95.363-212.959-212.959-212.959-117.557 0-212.912 95.299-212.912 212.959 0 117.533 95.339 212.928 212.912 212.928zM509.43 392.944c73.523 0 133.104 59.558 133.104 133.104 0 73.436-59.588 133.064-133.104 133.064-73.506 0-133.064-59.635-133.064-133.064 0-73.546 59.557-133.104 133.064-133.104zM469.502 607.343c22.052 0 39.928-17.899 39.928-39.912 0-22.069-17.86-39.935-39.928-39.935-22.037 0-39.912 17.883-39.912 39.935 0 22.012 17.875 39.912 39.912 39.912z"  horiz-adv-x="1024" />

    
    <glyph glyph-name="test-mark" unicode="&#59185;" d="M1020.772 493.43c-5.987 18.505-21.906 32.045-41.159 34.834l-291.186 51.16-130.216 262.067c-8.503 17.416-26.263 28.438-45.718 28.438-19.459 0-37.148-11.021-45.856-28.438l-130.15-262.067-291.116-52.93c-19.254-2.79-35.24-16.329-41.16-34.834-6.054-18.437-1.021-38.78 12.928-52.318l210.633-194.645-55.039-282.883c-3.266-19.117 4.49-38.646 20.343-49.938 15.128-15.128 46.332-7.891 53.746-4.014l265.674 129.808 263.972-129.808c7.414-3.876 36.741-12.99 53.744 4.014 15.718 11.293 23.744 30.82 20.411 49.938l-53.339 282.884 210.701 196.483c13.88 13.469 18.845 33.811 12.788 52.249z"  horiz-adv-x="1024" />

    
    <glyph glyph-name="identity-card" unicode="&#59186;" d="M607.25 231.263h243.528v-50.454h-243.528zM607.25 378.132h243.528v-50.454h-243.528zM607.25 525.002h119.14v-50.454h-119.14zM416.124 288.352h-0.005c-13.401 8.617-24.046 19.086-24.719 41.090v13.918c15.063 11.347 27.423 28.224 35.501 48.533 6.22 2.257 13.499 6.182 15.254 12.528 3.203 11.579 4.41 37.181-0.712 45.287-0.833 1.32-2.373 2.217-4.28 2.82-2.008 63.82-3.274 114.748-90.685 114.748-85.379 0-88.679-50.928-90.684-114.748-1.906-0.603-3.446-1.499-4.28-2.82-5.121-8.105-3.913-33.706-0.712-45.287 1.756-6.347 9.034-10.273 15.254-12.528 8.075-20.309 20.437-37.186 35.5-48.533v-13.918c-0.020-20.968-11.318-32.468-24.719-41.090-71.102-10.86-121.458-41.548-121.458-104.777 0-0.937 0.093-1.86 0.274-2.769h381.657c0.179 0.907 0.274 1.83 0.274 2.769-0.001 63.23-50.359 93.915-121.462 104.777zM999.627 746.226c-15.748 15.748-36.39 23.622-57.030 23.622l-860.323 0.001c-20.642 0-41.28-7.875-57.030-23.623s-23.622-36.39-23.622-57.030v-642.881c0-20.642 7.875-41.279 23.622-57.028 15.747-15.75 36.39-23.624 57.030-23.624h860.323c20.642 0 41.28 7.876 57.030 23.624 15.749 15.747 23.622 36.389 23.622 57.028v642.882c-0.001 20.642-7.876 41.28-23.622 57.029zM942.597 46.316h-860.323v642.881l860.323-0.001v-642.88z"  horiz-adv-x="1024" />

    
    <glyph glyph-name="personal-center" unicode="&#59187;" d="M511.3936765703125 383.3494762011718c132.4311483779297 0 239.6926828779297 107.26345556152344 239.6926828779297 239.6926819394531 0 132.4311483779297-107.26153356152344 239.69460393945315-239.6926828779297 239.69460393945315S271.7009946308593 755.4733074570312 271.7009946308593 623.042158140625c0-132.42922731640624 107.26153356152344-239.6926828779297 239.6926819394531-239.6926819394531z m0-119.8473029082031c-159.99530772851563 0-479.38728681738286-80.29601057910156-479.3872858789062-239.6926819394531v-119.84730196972657h958.773611696289V23.809491353515682c0.000961 159.39667136035152-319.3910180888672 239.6926828779297-479.3863258173828 239.6926819394531z"  horiz-adv-x="1024" />

    
    <glyph glyph-name="my-exam" unicode="&#59188;" d="M1010.790855 585.155583l-85.67258 85.642888c-16.956565 16.96578-44.392596 16.96578-61.369639 0l-50.599389-50.579935 147.038124-147.010479 50.602461 50.60246c16.967827999999997 16.943254 16.967827999999997 44.423313 0.0010229999999999998 61.345065999999996zM496.584383 302.665621l-43.900108-162.52643699999996 175.37005499999998 5.387685 304.687795 300.935255-146.182156 146.173965zM611.535988 100.04383499999994H142.09173399999997c-15.259986999999999 0-27.631593 12.370582-27.631594 27.631593v13.256244c0 15.259986999999999 12.370582 27.631593 27.631594 27.631593h279.554482l22.99544 104.377942H142.09173399999997c-15.259986999999999 0-27.631593 12.370582-27.631594 27.631593v13.256243c0 15.259986999999999 12.370582 27.631593 27.631594 27.631593h323.865167L570.337914 445.83653H142.09173399999997c-15.259986999999999 0-27.631593 12.370582-27.631594 27.631594v13.256243c0 15.259986999999999 12.370582 27.631593 27.631594 27.631593h496.76561l121.720511 121.718464v94.277313c0 37.260211-30.180044 67.4679-67.479162 67.46789899999999H69.36823099999998c-37.248948 0-67.480186-30.207689-67.480186-67.46789899999999v-692.936919c0-37.260211 30.231238-67.468923 67.480186-67.468924h623.731486c37.299118 0 67.479162 30.207689 67.479162 67.468924V220.73431800000003L640.878494 101.10867599999995s-25.30123-1.064841-29.342506-1.064841zM114.461164 656.178412c0 15.259986999999999 12.370582 27.631593 27.631594 27.631593h279.1131869999999c15.259986999999999 0 27.631593-12.370582 27.631593-27.631593v-13.256243c0-15.259986999999999-12.370582-27.631593-27.631593-27.631594H142.09173399999997c-15.259986999999999 0-27.631593 12.370582-27.631594 27.631594v13.256243z"  horiz-adv-x="1024" />

    
    <glyph glyph-name="real-name" unicode="&#59189;" d="M512.167 799.117c43.761 0 84.966-16.716 115.737-47.061 30.611-30.079 47.487-70.113 47.38-112.649 0-88.053-73.201-159.711-163.117-159.711s-163.17 71.657-163.17 159.711c0 42.483 16.769 82.464 47.487 112.596 30.771 30.398 71.87 47.114 115.684 47.114M601.47 201.086c123.725 0 224.351-92.149 224.404-205.4v-8.825c-33.014-15.875-156.423-15.875-224.404-15.875h-178.574c-77.948 0-193.499 0-224.298 14.989v9.713c0 113.251 100.573 205.4 224.298 205.4h178.574M512.172 894.814c-143.41 0-259.621-114.294-259.557-255.407 0-140.985 116.146-255.407 259.557-255.407s259.493 114.422 259.493 255.407c0.128 141.112-116.082 255.407-259.493 255.407zM620.274 298.885h-216.203c-185.234 0-335.414-147.689-335.414-329.858v-21.327c0-74.451 150.179-74.515 335.414-74.515h216.393c185.17 0 335.414 2.746 335.414 74.515v21.327c-0.127 182.169-150.243 329.858-335.604 329.858z"  horiz-adv-x="1024" />

    
    <glyph glyph-name="eye-open" unicode="&#59190;" d="M525.917 502.854c-101.203 0-183.168-81.965-183.168-183.168s81.965-183.168 183.168-183.168 183.168 81.965 183.168 183.168-82.067 183.168-183.168 183.168zM525.917 197.507c-67.332 0-122.078 54.746-122.078 122.078s54.746 122.078 122.078 122.078 122.078-54.746 122.078-122.078-54.746-122.078-122.078-122.078zM1017.195 459.16c-9.926 16.68-32.029 22.41-49.22 12.791l-32.131-17.907c-13.303 26.605-31.312 54.643-55.155 81.658l28.959 28.038c14.121 13.61 14.121 35.713 0 49.322-14.121 13.61-36.941 13.61-50.96 0l-29.675-28.754c-28.857 22.308-63.853 42.057-105.296 57.816l10.847 39.192c5.116 18.624-6.242 37.759-25.48 42.671-19.238 5.014-38.987-6.037-44.206-24.661l-10.131-36.531c-31.619 7.163-66.411 12.177-104.477 14.428v60.169c0 19.545-15.861 35.406-35.406 35.406s-35.406-15.861-35.406-35.406v-61.806c-43.285-3.991-81.76-11.768-116.245-22.103l-11.87 44.717c-5.116 18.828-24.456 30.085-43.285 24.968-18.931-5.116-30.085-24.456-24.968-43.285l13.814-51.676c-36.531-17.498-67.025-38.271-92.3-60.783l-43.183 43.183c-13.814 13.814-36.224 13.814-50.039 0s-13.814-36.224 0-50.039l44.922-44.922c-20.773-27.117-36.020-54.643-47.071-80.021l-54.95 31.722c-16.884 9.721-38.578 3.991-48.299-12.893s-3.991-38.578 12.893-48.299l61.192-35.406c2.047-1.126 4.093-2.047 6.242-2.763-3.172-13.2-5.014-23.945-6.037-31.415h-1.33c0-2.047 0.307-3.888 0.614-5.833-0.205-1.535-0.307-2.865-0.409-3.888-1.535-11.972 0.716-24.866 6.958-33.973 0 0 187.056-278.538 440.012-278.538s439.705 278.64 439.705 278.64c5.935 8.698 8.289 20.773 7.163 32.233h1.535s-0.205 2.149-0.614 5.833c0.307 1.842 0.614 3.684 0.614 5.73h-1.33c-1.535 10.847-4.707 28.959-11.358 51.369l42.159 23.536c17.293 9.517 23.229 30.801 13.2 47.48zM525.917 78.703c-191.149 0-346.689 195.754-379.945 240.881 33.461 45.229 188.898 240.881 379.945 240.881 191.149 0 346.689-195.754 379.945-240.881-33.461-45.229-188.898-240.881-379.945-240.881z"  horiz-adv-x="1024" />

    
    <glyph glyph-name="eye-close" unicode="&#59191;" d="M1004.036 511.091l-42.239 23.548c6.609 22.369 9.842 40.49 11.351 51.391h1.325c0 1.959-0.265 3.822-0.57 5.687 0.403 3.634 0.57 5.804 0.57 5.804h-2.080c-4.788 13.874-17.816 23.902-33.314 23.902-15.505 0-28.526-10.028-33.32-23.902h-2.074c-0.358-1.43-0.732-2.841-1.102-4.256-312.38-412.957-662.68-157.145-752.997 0.85-0.318 1.237-0.642 2.466-0.951 3.714h-1.134c-13.31 23.602-22.908 51.153-27.155 80.438 19.408-66.326 19.268-67.378 19.177-68.691-6.441 7.258-15.801 11.848-26.281 11.848-15.384 0-28.362-9.887-33.222-23.595h-2.171s0.165-2.218 0.59-5.946c-0.33-1.912-0.59-3.846-0.59-5.852h1.344c1.062-7.479 2.902-18.262 6.041-31.429-4.949-1.724-9.205-4.298-12.803-7.581l-54.726-30.619c-16.941-9.769-22.722-31.429-12.954-48.347 9.769-16.918 31.429-22.722 48.347-12.953l55.048 31.782c11.137-25.412 26.403-52.972 47.166-80.083l-44.925-44.925c-13.827-13.827-13.827-36.219 0-50.045 13.803-13.827 36.219-13.827 50.045 0l43.275 43.25c25.341-22.557 55.873-43.391 92.4-60.876l-13.851-51.744c-5.072-18.876 6.135-38.272 25.035-43.344 18.876-5.050 38.272 6.159 43.345 25.034l11.986 44.785c34.52-10.382 73.051-18.121 116.348-22.156v-61.867c0-19.537 15.856-35.393 35.394-35.393 19.537 0 35.394 15.856 35.394 35.393v60.192c38.152 2.288 72.93 7.268 104.597 14.44l10.123-36.525c5.169-18.593 24.965-29.636 44.215-24.657 19.255 4.978 30.698 24.115 25.531 42.731l-10.873 39.192c41.433 15.832 76.47 35.606 105.376 57.903l29.753-28.738c14.081-13.638 36.95-13.638 51.038 0 14.105 13.615 14.105 35.7 0 49.338l-28.998 28.031c23.9 27.064 41.952 55.189 55.255 81.782l32.162-17.932c17.274-9.628 39.358-3.916 49.314 12.765 9.978 16.678 4.055 38.009-13.213 47.659z"  horiz-adv-x="1024" />

    
    <glyph glyph-name="recent-dynamics" unicode="&#59192;" d="M918.8327492195629 848.9919001040582h-812.2632258064516c-46.351716961498425 0-83.97119667013528-37.59070967741935-83.97119667013528-83.95627887617064v-760.2608616024972c0-46.36663475546305 37.61947970863684-83.95840998959417 83.97119667013528-83.95840998959417h812.2632258064516c46.41458480749219 0 83.97013111342352 37.59070967741935 83.97013111342352 83.95840998959417v760.2597960457855c0 46.36663475546305-37.555546305931315 83.95840998959417-83.97013111342352 83.95840998959417zM330.6955254942768 76.12337148803317c0-15.870401664932361-12.86553173777315-28.73486784599375-28.73486784599375-28.73486784599375h-146.23274089490113c-15.870401664932361 0-28.73699895941727 12.86553173777315-28.73699895941727 28.73486784599375v130.7597918834547c0 15.870401664932361 12.86553173777315 28.73486784599375 28.73699895941727 28.73486784599375h146.23274089490113c15.870401664932361 0 28.73486784599375-12.86553173777315 28.73486784599375-28.73486784599375v-130.7597918834547zM330.6955254942768 331.21977939646206c0-15.870401664932361-12.86553173777315-28.73699895941727-28.73486784599375-28.73699895941727h-146.23274089490113c-15.870401664932361 0-28.73699895941727 12.86553173777315-28.73699895941727 28.73699895941727v130.7597918834547c0 15.870401664932361 12.86553173777315 28.73486784599375 28.73699895941727 28.73486784599375h146.23274089490113c15.870401664932361 0 28.73486784599375-12.86553173777315 28.73486784599375-28.73486784599375v-130.7597918834547zM330.6955254942768 588.5112341311134c0-15.870401664932361-12.86553173777315-28.73486784599375-28.73486784599375-28.73486784599375h-146.23274089490113c-15.870401664932361 0-28.73699895941727 12.86553173777315-28.73699895941727 28.73486784599375v130.7597918834547c0 15.871467221644119 12.86553173777315 28.73699895941727 28.73699895941727 28.73699895941727h146.23274089490113c15.870401664932361 0 28.73486784599375-12.86553173777315 28.73486784599375-28.73699895941727v-130.7597918834547zM897.3798959417272 76.12337148803317c0-15.870401664932361-12.86553173777315-28.73486784599375-28.73699895941727-28.73486784599375h-459.1910093652445c-15.871467221644119 0-28.73699895941727 12.86553173777315-28.73699895941727 28.73486784599375v130.7597918834547c0 15.870401664932361 12.86553173777315 28.73486784599375 28.73699895941727 28.73486784599375h459.1910093652445c15.870401664932361 0 28.73699895941727-12.86553173777315 28.73699895941727-28.73486784599375v-130.7597918834547zM897.3798959417272 331.21977939646206c0-15.870401664932361-12.86553173777315-28.73699895941727-28.73699895941727-28.73699895941727h-459.1910093652445c-15.871467221644119 0-28.73699895941727 12.86553173777315-28.73699895941727 28.73699895941727v130.7597918834547c0 15.870401664932361 12.86553173777315 28.73486784599375 28.73699895941727 28.73486784599375h459.1910093652445c15.870401664932361 0 28.73699895941727-12.86553173777315 28.73699895941727-28.73486784599375v-130.7597918834547zM897.3798959417272 588.5112341311134c0-15.870401664932361-12.86553173777315-28.73486784599375-28.73699895941727-28.73486784599375h-459.1910093652445c-15.871467221644119 0-28.73699895941727 12.86553173777315-28.73699895941727 28.73486784599375v130.7597918834547c0 15.871467221644119 12.86553173777315 28.73699895941727 28.73699895941727 28.73699895941727h459.1910093652445c15.870401664932361 0 28.73699895941727-12.86553173777315 28.73699895941727-28.73699895941727v-130.7597918834547z"  horiz-adv-x="1024" />

    
    <glyph glyph-name="message-center" unicode="&#59193;" d="M703.92628 484.07148c97.48617 74.281856 232.477259 182.347833 282.022046 222.11553899999998-24.808740999999998 28.02067-59.687395 45.751292-98.653399 45.751292H138.20404099999996c-38.016862 0-72.311901-16.709809-96.975251-43.63492099999999 47.574832-39.111396 190.15495899999996-155.495417 292.31107-233.35268 238.898043-182.056026 115.508599-185.04781899999998 370.38641999999993 9.12077zM1021.484314 628.694258c-11.309837-8.537156-154.911802-117.916777-287.4220169999999-218.97733-295.083751-224.815525-147.39546-224.888221-442.91743299999996 0.291807C158.708369 510.923897 15.325515999999993 620.157102 4.161069999999995 628.694258c-1.167229-7.442622-2.189067-14.957941-2.189067-22.693394v-437.809269c0-80.629945 61.001039999999996-145.936423 136.232038-145.936424h749.164606c75.229974 0 136.232038 65.306478 136.232038 145.936424V606.000864c0 7.808148999999999-1.021838 15.250772-2.116371 22.693394z"  horiz-adv-x="1024" />

    
    <glyph glyph-name="my-examination" unicode="&#59194;" d="M884.886 793.621h-743.144c-57.766 0-104.596-46.828-104.596-104.595v-608.538c0-57.766 46.829-104.595 104.596-104.595h743.144c57.766 0 104.595 46.828 104.595 104.595v608.537c0.001 57.766-46.828 104.596-104.595 104.596zM207.919 644.507c21.725 0 39.335-17.611 39.335-39.336s-17.61-39.336-39.335-39.336-39.336 17.611-39.336 39.336 17.611 39.336 39.336 39.336zM207.919 131.647c-22.133 0-40.075 17.942-40.075 40.075s17.942 40.075 40.075 40.075 40.075-17.942 40.075-40.075-17.942-40.075-40.075-40.075zM207.919 339.36c-22.133 0-40.075 17.942-40.075 40.075s17.942 40.075 40.075 40.075 40.075-17.942 40.075-40.075-17.942-40.075-40.075-40.075zM703.060 140.036h-331.262c-19.164 0-34.7 10.953-34.7 24.462s15.536 24.462 34.7 24.462h331.262c19.164 0 34.7-10.953 34.7-24.462s-15.536-24.462-34.7-24.462zM808.767 351.382h-436.968c-19.164 0-34.7 10.12-34.7 22.604s15.536 22.604 34.7 22.604h436.968c19.164 0 34.7-10.12 34.7-22.604s-15.536-22.604-34.7-22.604zM808.767 581.938h-436.968c-19.164 0-34.7 11.109-34.7 24.814s15.536 24.814 34.7 24.814h436.968c19.164 0 34.7-11.109 34.7-24.814s-15.536-24.814-34.7-24.814z"  horiz-adv-x="1024" />

    
    <glyph glyph-name="change-the-password" unicode="&#59195;" d="M890.201 512.010h-103.284v127.82c0 141.14-123.147 255.407-275.27 255.407-151.889 0-275.27-114.268-275.27-255.407v-127.821h-103.284c-38.090 0-68.701-28.508-68.701-63.793v-510.814c0-35.285 30.846-63.793 68.701-63.793h757.108c38.090 0 68.934 28.508 68.934 63.793v510.815c0 35.285-30.845 63.793-68.934 63.793zM333.352 643.803c0 91.367 80.151 165.442 178.528 165.442s178.528-74.308 178.528-165.442v-132.494h-357.055v132.494zM866.366-37.594h-709.438v460.808h709.671l-0.233-460.808zM506.974 71.841c27.038 0 48.955 21.918 48.955 48.955v168.339c0 27.038-21.918 48.955-48.955 48.955-27.038 0-48.955-21.918-48.955-48.955v-168.339c-0.001-27.038 21.917-48.955 48.955-48.955z"  horiz-adv-x="1024" />

    
    <glyph glyph-name="test-analysis" unicode="&#59196;" d="M453.995 330.834s1.586 491.115 0.36 491.115c-255.86 0-452.901-223.060-452.901-483.666 0-260.616 211.191-464.814 471.764-464.814 260.582 0 471.762 194.769 471.762 455.375 0.001 2.173-490.986 1.99-490.986 1.99zM530.090 895.047c3.626 0 0-488.395 0-488.395s492.992-1.445 492.992 0c0.003 260.668-232.417 488.395-492.992 488.395z"  horiz-adv-x="1024" />

    
    <glyph glyph-name="refresh" unicode="&#59197;" d="M698.21 120.599c-56.249-39.483-122.224-59.152-189.505-58.354-8.927 0.145-17.709 0.799-26.492 1.452-3.556 0.362-7.113 0.944-10.669 1.452-6.968 0.871-13.717 1.742-20.467 3.121-4.138 0.726-8.274 1.887-12.266 2.831-6.605 1.452-13.136 2.903-19.596 4.791-3.048 1.161-5.952 2.105-9 3.339-7.475 2.322-14.879 4.935-21.992 7.912-1.597 0.726-3.193 1.306-4.79 1.96-8.347 3.847-16.621 7.766-24.677 11.975-0.291 0.218-0.726 0.362-1.016 0.581-27.144 14.952-51.895 33.314-73.669 55.232-0.362 0.362-0.653 0.799-1.088 1.161-6.749 6.749-13.209 13.717-19.306 21.266-1.234 1.525-2.468 3.048-3.774 4.862-44.201 55.305-70.838 125.345-70.838 201.48h85.208l-136.231 204.31-136.232-204.311h85.063c0-89.491 28.016-172.522 75.41-241.254 0.581-1.016 0.944-2.105 1.597-2.975 4.862-7.113 10.379-13.573 15.605-20.104 2.032-2.395 3.774-4.862 5.879-7.548 7.693-9.29 16.040-18.145 24.46-26.854 0.871-0.871 1.597-1.596 2.322-2.395 28.523-28.596 60.676-52.548 95.732-71.853 0.944-0.508 1.742-0.944 2.831-1.525 10.088-5.443 20.467-10.452 30.919-15.023 2.686-1.161 5.226-2.322 7.766-3.412 9.073-3.847 18.29-7.040 27.58-10.234 53.881-19.321 116.276-32.56 181.086-37.014-136.981 23.409-101.254 17.417-64.367 15.933-73.1 9.033-67.728 7.581-61.995 6.565 2.322-0.581 4.5-1.306 6.822-1.525 7.983-1.452 15.895-2.178 23.734-3.121 2.903-0.508 5.734-1.016 8.565-1.306 14.226-1.379 28.379-2.25 42.531-2.25 86.443 0 170.924 26.419 243.359 77.225 23.080 16.186 28.741 48.121 12.629 71.056-16.26 23.297-48.050 28.886-71.13 12.556zM938.157 385.659c0 89.273-27.653 172.231-74.83 240.601-0.726 1.161-1.161 2.395-1.742 3.412-6.096 8.419-12.339 16.258-18.798 24.169-2.683 3.248-4.712 7.141-5.822 11.404-39.685 43.755-93.902 84.328-155.232 110.819-1.814 0.726-3.339 1.525-5.153 2.249-9.871 4.065-19.887 7.548-30.121 11.032-3.483 1.161-7.186 2.468-10.814 3.556-8.855 2.686-17.709 4.862-26.709 6.968-5.008 1.088-10.088 2.395-15.096 3.412-2.468 0.435-4.718 1.161-7.33 1.669-6.749 1.088-13.355 1.742-20.104 2.54-4.718 0.508-9.218 1.234-13.935 1.742-11.322 1.088-22.573 1.525-33.822 1.742-2.032 0-4.065 0.291-6.097 0.291-0.362 0-0.726-0.073-1.088-0.145-86.37-0.073-170.706-26.129-242.996-76.862-23.080-16.113-28.741-47.975-12.483-71.2 16.040-23.008 48.048-28.669 71.2-12.412 55.814 39.048 120.989 58.935 187.836 58.282 9.58-0.073 19.161-0.508 28.451-1.452 2.903-0.218 5.661-0.653 8.565-1.088 7.693-0.943 15.314-1.96 22.862-3.556 3.266-0.581 6.605-1.452 9.726-2.178 7.475-1.669 14.734-3.412 21.919-5.588 2.395-0.653 4.573-1.452 6.749-2.322 8.347-2.686 16.475-5.516 24.314-8.855 0.871-0.218 1.669-0.871 2.468-1.161 47.684-20.467 89.418-51.967 122.079-91.45 0.073-0.145 0.218-0.435 0.508-0.653 45.87-55.886 73.45-127.232 73.523-204.964h-85.28l136.449-204.384 136.087 204.384h-85.284z"  horiz-adv-x="1024" />

    
    <glyph glyph-name="chakan" unicode="&#59202;" d="M512.710576 690.363895c-307.625322 0-512.710576-307.625322-512.710576-307.625322s205.084231-307.624298 512.710576-307.624298c307.624298 0 512.708529 307.624298 512.708529 307.624298S820.185387 690.363895 512.710576 690.363895z m0-510.443694c-112.661174 0-204.028605 91.366407-204.028604 204.026557 0 112.663222 91.365383 204.028605 204.028604 204.028605 112.66015 0 204.026557-91.365383 204.026557-204.028605-0.150511-112.810661-91.365383-204.026557-204.026557-204.026557zM410.167437 383.341642c0-26.730574 11.025197-53.307566 29.901547-72.186987 18.87635-18.878398 45.456413-29.901547 72.186987-29.901547 26.732622 0 53.310637 11.025197 72.189035 29.901547 18.87635 18.87635 29.901547 45.456413 29.901547 72.186987 0 26.731598-11.025197 53.309613-29.901547 72.189035-18.87635 18.87635-45.456413 29.901547-72.189035 29.901547-26.730574 0-53.307566-11.025197-72.186987-29.901547-18.877374-19.029933-29.901547-45.457437-29.901547-72.189035z"  horiz-adv-x="1025" />

    
    <glyph glyph-name="add-by-user" unicode="&#59203;" d="M602.431 254.479c-3.753 0-30.022 27.159-11.259 77.597 41.281 42.679 75.056 112.516 75.056 182.354 0 104.757-71.303 159.075-146.359 159.075-78.809 0-146.359-54.318-146.359-159.075 0-69.837 30.022-139.675 71.303-182.354 15.011-42.679-11.259-73.718-18.764-77.597-82.562-31.039-176.382-85.357-176.382-143.555v-19.4c0-73.718 138.854-93.116 270.202-93.116 127.596 0 266.45 15.519 266.45 93.116v19.4c-3.754 58.198-101.327 116.395-183.889 143.555zM850.117 394.154c-3.753 0-26.27 7.76-11.259 54.318 37.528 38.799 63.798 104.757 63.798 170.714 0 96.997-60.045 151.315-135.101 151.315-52.54 0-101.326-27.159-120.089-81.477 45.034-38.799 75.056-96.997 75.056-174.594 0-81.477-37.528-159.074-78.808-209.513 63.797-23.279 161.37-73.718 187.64-151.315 97.573 3.88 187.64 27.159 187.64 85.357v19.4c3.752 58.197-86.317 108.634-168.878 135.794zM174.61 394.154c3.753 0 26.27 7.76 11.259 54.318-37.528 38.799-63.797 104.757-63.797 170.714 3.753 96.997 63.797 151.315 135.101 151.315 52.54 0 101.326-27.159 120.089-81.477-45.034-38.799-75.056-96.997-75.056-174.594 0-81.477 37.528-159.074 78.809-209.513-63.797-23.279-161.37-73.718-187.64-151.315-97.573 3.88-187.64 27.159-187.64 85.357v19.4c-0.001 58.197 90.067 108.634 168.876 135.794z"  horiz-adv-x="1024" />

    
    <glyph glyph-name="import-batch" unicode="&#59204;" d="M365.536 282.395c2.904-17.672 14.231-33.303 30.668-42.178 16.438-8.874 35.721-9.767 52.089-2.499l263.026 115.681c11.698 5.398 20.607 13.764 26.421 24.534 3.978 7.369 5.995 16.529 6.266 25.166 0.111 21.901-11.647 42.157-31.485 52.867l-51.582 27.847c70.381 130.371 215.904 193.825 358.977 170.025-26.189 28.778-57.967 53.986-94.245 73.57-171.183 92.413-383.147 33.35-471.628-131.904l-51.581 27.847c-19.839 10.71-43.792 9.732-61.474-2.683-7.64-4.66-13.624-11.677-17.603-19.046-5.814-10.77-8.227-23.375-6.015-35.55l48.166-283.677zM935.213 362.75c-26.726 0-48.87-22.145-48.87-48.87v-58.797c0-103.086-3.818-185.555-195.481-185.555h-390.963c-197.773 0-195.481 87.814-195.481 195.481v244.351c-13.745 153.483 58.798 187.082 146.611 193.955h3.054c26.726 0 48.87 22.145 48.87 48.87s-22.145 49.634-48.87 49.634h-3.054v0.764h-48.87c-107.668 0-195.481-87.814-195.481-195.481v-439.833c0-107.668 87.814-195.481 195.481-195.481h585.681c107.668 0 195.481 87.814 195.481 195.481v146.611c0.763 26.726-21.382 48.87-48.107 48.87z"  horiz-adv-x="1024" />

    
    <glyph glyph-name="set-more-batch" unicode="&#59205;" d="M992.251 339.344l0.011-0.023-460.22-184.994c-0.071-0.025-0.142-0.051-0.208-0.081l-0.213-0.086-0.011 0.020c-5.386-2.237-11.642-3.537-18.202-3.537-0.004 0-0.007 0-0.011 0-0.001-0-0.004-0-0.006-0-6.561 0-12.818 1.299-18.529 3.655l0.319-0.139-0.215 0.086c-0.071 0.030-0.142 0.055-0.208 0.081l-460.218 185.016c-17.271 6.954-29.44 23.463-29.44 42.758 0 25.562 21.332 46.29 47.653 46.29 0 0 0 0 0.001 0 6.563 0 12.822-1.3 18.535-3.656l-0.312 0.139 0.213-0.086c0.066-0.025 0.136-0.055 0.203-0.081l442.003-177.676 442.004 177.676c0.072 0.025 0.137 0.055 0.209 0.081l0.213 0.086 0.005-0.020c5.389 2.238 11.648 3.538 18.211 3.538 0 0 0-0 0.001-0 26.32 0 47.653-20.73 47.653-46.29 0-19.296-12.163-35.806-29.44-42.759l-0.001 0.001zM992.251 539.943l0.011-0.022-460.22-184.994c-0.071-0.031-0.142-0.056-0.208-0.086l-0.213-0.086-0.011 0.020c-5.383-2.235-11.635-3.533-18.19-3.533-0.008 0-0.016 0-0.023 0-0.003-0-0.008-0-0.013-0-6.558 0-12.812 1.298-18.521 3.651l0.319-0.139-0.215 0.086c-0.071 0.031-0.142 0.056-0.208 0.086l-460.218 185.015c-17.271 6.952-29.44 23.457-29.44 42.751s12.169 35.805 29.44 42.752l-0.004 0.020 460.22 185.001c0.067 0.025 0.137 0.051 0.208 0.081l0.215 0.086 0.004-0.020c5.39 2.234 11.65 3.532 18.212 3.532s12.822-1.297 18.537-3.65l-0.314 0.139 0.213-0.086c0.066-0.030 0.136-0.055 0.208-0.081l460.211-185.020c17.279-6.948 29.441-23.458 29.441-42.752 0.001-19.295-12.162-35.799-29.439-42.751l-0.002-0.001zM52.758 227.798c6.569-0.003 12.833-1.304 18.55-3.661l-0.327 0.145 0.213-0.086c0.066-0.031 0.136-0.055 0.203-0.086l442.003-177.669 442.429 177.819c5.393 2.237 11.657 3.537 18.224 3.538 26.309-0 47.641-20.729 47.641-46.296 0-19.288-12.163-35.804-29.44-42.751l0.011-0.022-460.221-184.995c-0.071-0.030-0.142-0.055-0.208-0.086l-0.213-0.081-0.011 0.014c-5.392-2.238-11.655-3.537-18.221-3.538-6.56 0.003-12.824 1.304-18.541 3.661l0.334-0.138-0.215 0.081c-0.071 0.031-0.142 0.056-0.208 0.086l-460.219 185.015c-17.271 6.948-29.44 23.463-29.44 42.752 0 25.566 21.334 46.296 47.654 46.296h0.002z"  horiz-adv-x="1024" />

    
    <glyph glyph-name="exam-organize" unicode="&#59206;" d="M166.896 375.298c0 16.57 11.465 30.038 25.493 30.038h277.266v-133.595h70.076v133.593h277.96c13.812 0 25.545-13.775 25.545-30.038v-103.557h70.078v103.558c0 53.417-42.878 96.822-95.623 96.822h-277.959v120.552c62.11 17.22 107.836 75.886 107.836 145.617 0 83.151-65.169 150.645-145.592 150.645s-145.592-67.496-145.592-150.645c0-71.752 48.411-131.793 113.273-147.014v-119.157h-277.268c-52.691 0-95.568-43.405-95.568-96.822v-103.557h70.076v103.557h0.001zM501.972 206.195c-80.422 0-145.592-67.445-145.592-150.696 0-83.25 65.169-150.697 145.592-150.697s145.592 67.447 145.592 150.697c0 83.252-65.169 150.696-145.592 150.696zM149.99 202.077c-80.369 0-145.592-67.395-145.592-150.643 0-83.252 65.224-150.748 145.592-150.748 80.476 0 145.699 67.496 145.699 150.748 0 83.249-65.223 150.643-145.699 150.643zM878.273 201.468c-80.474 0-145.699-67.498-145.699-150.645 0-83.252 65.225-150.748 145.699-150.748 80.37 0 145.593 67.496 145.593 150.748-0.001 83.148-65.224 150.645-145.593 150.645z"  horiz-adv-x="1024" />

    
    <glyph glyph-name="monitor" unicode="&#59207;" d="M953.788 453.645c0 245.351-196.232 441.582-441.521 441.582s-441.52-196.293-441.52-441.582c0-192.174 122.707-355.7 294.347-417.053-93.997-32.644-155.35-94.058-155.35-163.587h592.751c0 69.529-57.234 130.944-147.112 163.587 175.823 61.291 298.405 224.818 298.405 417.053zM520.444 142.889c-126.763 0-233.056 106.353-233.056 233.117 0 126.702 106.292 232.994 233.056 232.994 130.821 0 233.117-106.292 233.117-232.994 0-126.763-102.295-233.117-233.117-233.117zM520.444 478.118c-61.353 0-114.407-53.115-114.407-114.407 0-65.411 53.054-114.468 114.407-114.468 65.472 0 114.407 53.115 114.407 114.468 0 65.288-53.115 114.407-114.407 114.407z"  horiz-adv-x="1024" />

    
    </font>
</defs>
</svg>
